<?xml version="1.0" standalone="no"?>
<!DOCTYPE svg PUBLIC "-//W3C//DTD SVG 1.1//EN" "http://www.w3.org/Graphics/SVG/1.1/DTD/svg11.dtd" >
<svg xmlns="http://www.w3.org/2000/svg" xmlns:xlink="http://www.w3.org/1999/xlink" version="1.1">
<metadata></metadata>
<defs>
<font id="ibm_plex_monobold" horiz-adv-x="1228" >
<font-face units-per-em="2048" ascent="1638" descent="-410" />
<missing-glyph horiz-adv-x="500" />
<glyph horiz-adv-x="0" />
<glyph horiz-adv-x="0" />
<glyph unicode="&#xd;" />
<glyph unicode=" " />
<glyph unicode="!" d="M414 135v66q0 63 46 110t154 47q109 0 155 -47t46 -110v-66q0 -66 -45 -113t-156 -47t-155.5 47.5t-44.5 112.5zM449 1014v416h331v-416l-116 -516h-99z" />
<glyph unicode="&#x22;" d="M250 848v668h271v-668h-271zM710 848v668h271v-668h-271z" />
<glyph unicode="#" d="M18 397v226h263l30 184h-215v225h256l70 398h240l-252 -1430h-240l70 397h-222zM567 0l252 1430h240l-70 -398h221v-225h-262l-30 -184h215v-226h-256l-70 -397h-240z" />
<glyph unicode="$" d="M61 197l179 194q66 -70 140.5 -108.5t158.5 -51.5v377l-47 8q-197 35 -291.5 144.5t-94.5 267.5q0 174 106.5 282.5t305.5 135.5v215h234v-213q129 -16 220 -65.5t152 -120.5l-176 -197q-86 94 -217 123v-342l47 -8q197 -37 291 -142.5t94 -261.5q0 -84 -27.5 -157.5 t-79.5 -131t-129 -97.5t-175 -58v-221h-234v211q-154 12 -269.5 68t-187.5 149zM395 1038q0 -66 34 -99.5t110 -53.5v309q-76 -12 -110 -51t-34 -105zM731 233q74 16 110 62.5t36 118.5q0 70 -35 104.5t-111 52.5v-338z" />
<glyph unicode="%" d="M4 0l309 614h232l-309 -614h-232zM16 1073q0 178 84 279.5t238 101.5t237.5 -101.5t83.5 -279.5t-83.5 -279.5t-237.5 -101.5t-238 101.5t-84 279.5zM231 1028q0 -72 24 -115t83 -43t82.5 43t23.5 115v90q0 72 -23.5 115t-82.5 43t-83 -43t-24 -115v-90zM571 356 q0 178 84 279.5t238 101.5t237.5 -101t83.5 -280q0 -178 -83.5 -279.5t-237.5 -101.5t-238 101.5t-84 279.5zM684 815l309 615h232l-310 -615h-231zM786 311q0 -72 24 -114.5t83 -42.5t82.5 43t23.5 114v90q0 72 -23.5 115t-82.5 43t-83 -43t-24 -115v-90z" />
<glyph unicode="&#x26;" d="M29 389q0 129 61.5 225.5t179.5 165.5q-66 92 -99.5 164t-33.5 150q0 76 30 142.5t84 114.5t127 75.5t159 27.5q76 0 141 -21.5t115.5 -56.5t84 -81t50.5 -95l-209 -113q-23 66 -70 104t-108 38t-99.5 -37t-38.5 -96v-11q0 -29 8.5 -54t29 -57t52 -74t80.5 -103l117 -148 l98 -151h13q6 35 10 76.5t7 86t4 86t1 76.5h365v-225h-144q-10 -66 -30.5 -134.5t-52.5 -139.5l266 -324h-324l-164 199h-14q-14 -104 -94 -164t-207 -60q-96 0 -170 34t-124 90.5t-75.5 131t-25.5 158.5zM307 406q0 -98 52.5 -148.5t140.5 -50.5q47 0 88 17.5t69 64.5 l-264 336q-53 -51 -69.5 -103.5t-16.5 -111.5v-4z" />
<glyph unicode="'" d="M479 848v668h271v-668h-271z" />
<glyph unicode="(" d="M356 637q0 150 34 288t92.5 256.5t136 214t163.5 160.5h303q-96 -66 -182 -152.5t-150.5 -191t-103.5 -223.5t-39 -248v-209q0 -129 39 -247.5t103.5 -223t150.5 -191.5t182 -153h-303q-86 63 -163.5 159.5t-136 215.5t-92.5 257t-34 288z" />
<glyph unicode=")" d="M143 -283q94 66 181.5 153t152 191.5t103 223t38.5 247.5v209q0 129 -38.5 248t-103 223.5t-151.5 191.5t-182 152h303q86 -66 164 -161t136.5 -213.5t92 -256.5t33.5 -288t-33.5 -288t-92 -257t-136.5 -215t-164 -160h-303z" />
<glyph unicode="*" d="M61 690l80 236l342 -125v362h262v-362l342 125l80 -236l-350 -119l234 -307l-213 -141l-224 305l-223 -305l-213 141l234 307z" />
<glyph unicode="+" d="M127 504v241h356v377h262v-377h357v-241h-357v-377h-262v377h-356z" />
<glyph unicode="," d="M348 -309l117 665h389l-281 -665h-225z" />
<glyph unicode="-" d="M287 479v291h655v-291h-655z" />
<glyph unicode="." d="M399 145v72q0 70 50.5 120t164.5 50q115 0 165 -50t50 -120v-72q0 -70 -50 -120t-165 -50t-165 50.5t-50 119.5z" />
<glyph unicode="/" d="M150 -283l657 1839h272l-657 -1839h-272z" />
<glyph unicode="0" d="M55 715q0 350 136.5 544.5t422.5 194.5q287 0 423.5 -194.5t136.5 -544.5t-136.5 -545t-423.5 -195t-423 195t-136 545zM369 582q0 -172 54 -268.5t191 -96.5t191.5 96.5t54.5 268.5v266q0 172 -54 268t-192 96q-137 0 -191 -96t-54 -268v-266zM487 692v45q0 41 28 70 t99 29q72 0 99.5 -29t27.5 -70v-45q0 -41 -27.5 -69.5t-99.5 -28.5t-99.5 28.5t-27.5 69.5z" />
<glyph unicode="1" d="M72 979l342 451h471v-1182h303v-248h-995v248h385v958h-19l-291 -381z" />
<glyph unicode="2" d="M78 1090q25 74 67.5 140t109.5 115.5t155 79t202 29.5q117 0 209 -32.5t155.5 -90t96.5 -136.5t33 -171q0 -90 -29.5 -165t-82 -140.5t-123 -127t-150.5 -122.5l-272 -211h688v-258h-1028v281l450 374q117 100 168 174t51 156v21q0 90 -53 136t-143 46 q-102 0 -157.5 -59.5t-78.5 -141.5z" />
<glyph unicode="3" d="M49 250l227 176q47 -88 118 -144.5t190 -56.5q111 0 170 51.5t59 141.5v14q0 88 -67.5 132t-188.5 44h-133v256h135q119 0 173 45t54 111v14q0 78 -52 124t-148 46q-88 0 -165 -44t-130 -126l-195 180q41 53 90.5 97.5t108.5 76t134 49t169 17.5q117 0 211 -26.5 t160.5 -77t103.5 -120t37 -155.5q0 -68 -22.5 -123t-60.5 -96t-88 -66.5t-108 -35.5v-13q131 -23 218.5 -109.5t87.5 -234.5q0 -96 -40 -174t-113 -133t-176 -85t-230 -30q-109 0 -192 22.5t-146.5 60.5t-109.5 88.5t-81 103.5z" />
<glyph unicode="4" d="M51 274v263l570 893h368v-918h185v-238h-185v-274h-295v274h-643zM299 512h395v600h-18z" />
<glyph unicode="5" d="M86 250l223 176q25 -41 52.5 -78t63.5 -64.5t80 -43t101 -15.5q115 0 173.5 62.5t58.5 167.5v16q0 100 -59.5 157.5t-164.5 57.5q-86 0 -142 -34t-85 -66l-252 35l53 809h887v-269h-661l-33 -452h18q23 49 51.5 91t67.5 71.5t90 46t117 16.5q88 0 167 -31t139.5 -89 t95 -143t34.5 -192q0 -109 -37 -201t-107.5 -159.5t-175 -105.5t-237.5 -38q-104 0 -186 22.5t-144.5 60.5t-108.5 88.5t-79 103.5z" />
<glyph unicode="6" d="M78 543q0 150 47 284t122 247.5t168 203.5t185 152h424q-133 -92 -238.5 -177.5t-184.5 -170.5t-129 -175t-73 -194l19 -6q18 41 44.5 79.5t65.5 68.5t91.5 48.5t121.5 18.5q90 0 168 -32t134.5 -90.5t89 -140t32.5 -184.5q0 -109 -39 -201t-109.5 -158.5t-170.5 -103.5 t-223 -37q-129 0 -230.5 40t-171 115t-106.5 179.5t-37 233.5zM397 438q0 -106 56.5 -164.5t167.5 -58.5t168 58.5t57 164.5v29q0 106 -58.5 162.5t-166.5 56.5q-104 0 -164 -56.5t-60 -162.5v-29z" />
<glyph unicode="7" d="M104 920v510h1029v-267l-474 -1163h-323l491 1180h-462v-260h-261z" />
<glyph unicode="8" d="M74 393q0 139 79.5 224t204.5 120v17q-106 39 -173.5 118.5t-67.5 204.5q0 82 32.5 151.5t96 120t156 78t212.5 27.5q119 0 212.5 -27.5t157 -78t96 -120t32.5 -151.5q0 -125 -67.5 -204.5t-174.5 -118.5v-17q125 -35 205 -120t80 -224q0 -90 -36 -166.5t-105.5 -132 t-170 -87.5t-229.5 -32t-229 32t-170 87.5t-105.5 132t-35.5 166.5zM395 393q0 -84 56.5 -133t162.5 -49t163 49t57 133v41q0 86 -55.5 134t-164.5 48t-164 -48t-55 -134v-41zM406 1016q0 -80 53 -127t155 -47t155.5 47t53.5 127v31q0 80 -54 126t-155 46q-100 0 -154 -46.5 t-54 -125.5v-31z" />
<glyph unicode="9" d="M63 954q0 109 39 201t110 158.5t171 103.5t223 37q129 0 230.5 -40t171 -114.5t106.5 -179t37 -233.5q0 -152 -47 -285t-122 -246.5t-168 -204t-185 -151.5h-424q133 92 238.5 177t184.5 170t129 175t72 195l-18 6q-18 -41 -46 -80t-65.5 -68.5t-90 -48t-122.5 -18.5 q-90 0 -167.5 31.5t-134 90t-89.5 140.5t-33 184zM383 963q0 -106 58 -163t167 -57q104 0 163.5 56.5t59.5 163.5v28q0 106 -56 164.5t-167 58.5t-168 -58t-57 -165v-28z" />
<glyph unicode=":" d="M399 145v72q0 70 50.5 120t164.5 50q115 0 165 -50t50 -120v-72q0 -70 -50 -120t-165 -50t-165 50.5t-50 119.5zM399 839v72q0 70 50.5 120t164.5 50q115 0 165 -50t50 -120v-72q0 -70 -50 -120t-165 -50t-165 50.5t-50 119.5z" />
<glyph unicode=";" d="M348 -309l117 665h389l-281 -665h-225zM399 839v72q0 70 50.5 120t164.5 50q115 0 165 -50t50 -120v-72q0 -70 -50 -120t-165 -50t-165 50.5t-50 119.5z" />
<glyph unicode="&#x3c;" d="M174 483v283l881 471v-283l-609 -321v-17l609 -321v-283z" />
<glyph unicode="=" d="M127 268v242h975v-242h-975zM127 739v242h975v-242h-975z" />
<glyph unicode="&#x3e;" d="M174 12v283l608 321v17l-608 321v283l881 -471v-283z" />
<glyph unicode="?" d="M125 1126q18 61 54 120t93.5 105t137 74.5t186.5 28.5q109 0 198 -30.5t152.5 -86t98 -133.5t34.5 -170q0 -86 -29.5 -156.5t-79.5 -123t-117 -85t-140 -44.5v-148h-287v314q154 6 244 53t90 164v28q0 86 -50.5 123t-123.5 37q-84 0 -137.5 -48t-73.5 -126zM373 135v66 q0 66 46 111.5t154 45.5q109 0 156 -47t47 -110v-66q0 -66 -46 -113t-157 -47q-109 0 -154.5 47.5t-45.5 112.5z" />
<glyph unicode="@" d="M78 625q0 233 36 392t104.5 256t168.5 139t229 42q133 0 230.5 -39t161 -107.5t94.5 -160.5t31 -199v-762h-220v125h-14q-23 -76 -72 -112.5t-120 -36.5q-121 0 -187.5 105.5t-66.5 334.5t66.5 334.5t187.5 105.5q72 0 121 -36.5t71 -112.5h14v55q0 86 -20.5 145.5 t-58 96.5t-90 53.5t-115.5 16.5q-76 0 -135.5 -25t-101.5 -84t-63.5 -161.5t-21.5 -256.5v-264q0 -119 21.5 -213t68.5 -158.5t121 -98.5t180 -34h215v-196h-215q-170 0 -288.5 53t-192.5 159.5t-106.5 267.5t-32.5 376zM682 535q0 -115 30 -156t85 -41q57 0 86.5 32.5 t29.5 88.5v286q0 55 -29.5 88t-86.5 33q-55 0 -85 -41t-30 -155v-135z" />
<glyph unicode="A" d="M10 0l387 1430h434l388 -1430h-328l-90 344h-391l-88 -344h-312zM459 592h295l-140 541h-16z" />
<glyph unicode="B" d="M158 0v1430h501q211 0 323 -102.5t112 -278.5q0 -123 -60.5 -196t-173.5 -105v-13q133 -33 206 -114.5t73 -227.5q0 -180 -114 -286.5t-318 -106.5h-549zM457 215h155q111 0 162 37t51 135v59q0 98 -51 135t-162 37h-155v-403zM457 823h116q109 0 158 36t49 130v62 q0 94 -49 128.5t-158 34.5h-116v-391z" />
<glyph unicode="C" d="M84 715q0 352 138 545.5t425 193.5q111 0 196 -29.5t146.5 -83t101 -129t62.5 -170.5l-287 -69q-12 51 -28.5 94t-42 73.5t-63.5 48t-91 17.5q-125 0 -177 -97t-52 -269v-250q0 -172 52 -269.5t177 -97.5q106 0 154.5 65.5t70.5 168.5l287 -70q-23 -94 -62.5 -170 t-101 -130t-146.5 -83t-196 -29q-287 0 -425 193.5t-138 546.5z" />
<glyph unicode="D" d="M131 0v1430h461q289 0 428 -184.5t139 -530.5t-139 -530.5t-428 -184.5h-461zM434 242h137q137 0 201 88t64 256v260q0 166 -63.5 254t-201.5 88h-137v-946z" />
<glyph unicode="E" d="M164 0v1430h913v-252h-606v-328h586v-252h-586v-346h606v-252h-913z" />
<glyph unicode="F" d="M164 0v1430h948v-252h-641v-328h573v-252h-573v-598h-307z" />
<glyph unicode="G" d="M72 702q0 365 133 558.5t411 193.5q111 0 195 -29.5t144.5 -84t99.5 -130t61 -168.5l-287 -69q-12 45 -27.5 87t-40 74.5t-61 52t-90.5 19.5q-117 0 -165 -96t-48 -270v-234q0 -174 52.5 -278.5t185.5 -104.5q104 0 155.5 61.5t51.5 157.5v105h-244v217h518v-764h-274 v203h-19q-18 -45 -44.5 -86t-65.5 -73t-91.5 -50.5t-117.5 -18.5q-104 0 -185 49.5t-136.5 143.5t-83 229t-27.5 305z" />
<glyph unicode="H" d="M125 0v1430h309v-580h361v580h309v-1430h-309v598h-361v-598h-309z" />
<glyph unicode="I" d="M154 0v227h307v975h-307v228h921v-228h-307v-975h307v-227h-921z" />
<glyph unicode="J" d="M78 373l291 59q16 -92 62 -149.5t138 -57.5q78 0 122 50.5t44 154.5v748h-471v252h783v-1031q0 -96 -34 -175t-96.5 -134t-150.5 -85t-197 -30q-219 0 -338.5 110t-152.5 288z" />
<glyph unicode="K" d="M139 0v1430h307v-599h17l155 238l252 361h344l-428 -605l449 -825h-346l-316 596l-127 -178v-418h-307z" />
<glyph unicode="L" d="M188 0v1430h310v-1178h614v-252h-924z" />
<glyph unicode="M" d="M80 0v1430h362l176 -482h17l176 482h338v-1430h-266v637l16 399h-18l-267 -735l-266 735h-18l16 -399v-637h-266z" />
<glyph unicode="N" d="M125 0v1430h369l325 -951h23v951h262v-1430h-369l-325 950h-23v-950h-262z" />
<glyph unicode="O" d="M55 715q0 350 136.5 544.5t422.5 194.5q287 0 423.5 -194.5t136.5 -544.5t-136.5 -545t-423.5 -195t-423 195t-136 545zM383 590q0 -172 50 -269.5t181 -97.5t181.5 97.5t50.5 271.5v248q0 172 -50.5 269t-181.5 97t-181 -97t-50 -269v-250z" />
<glyph unicode="P" d="M156 0v1430h553q104 0 186 -32t138.5 -91.5t85 -143.5t28.5 -188t-28.5 -188.5t-85 -143.5t-138.5 -91t-186 -32h-244v-520h-309zM465 768h166q109 0 150.5 41t41.5 135v62q0 94 -42 135t-150 41h-166v-414z" />
<glyph unicode="Q" d="M55 715q0 350 136.5 544.5t422.5 194.5q287 0 423.5 -194.5t136.5 -544.5q0 -309 -103.5 -496.5t-322.5 -230.5v-160h329v-219h-291q-166 0 -235.5 80t-69.5 215v84q-219 43 -322.5 230.5t-103.5 496.5zM383 590q0 -172 50 -269.5t181 -97.5t181.5 97.5t50.5 271.5v248 q0 172 -50.5 269t-181.5 97t-181 -97t-50 -269v-250z" />
<glyph unicode="R" d="M156 0v1430h553q104 0 186 -32t138.5 -91.5t85 -143.5t28.5 -188q0 -152 -65.5 -260.5t-186.5 -143.5l281 -571h-336l-240 530h-141v-530h-303zM459 768h176q109 0 150.5 41t41.5 135v62q0 94 -42 135t-150 41h-176v-414z" />
<glyph unicode="S" d="M63 197l179 196q78 -86 171 -127t189 -41q111 0 168 49.5t57 141.5q0 76 -44 114.5t-148 55.5l-150 24q-193 33 -278.5 142.5t-85.5 267.5q0 207 135 320.5t379 113.5q166 0 289 -51t198 -139l-174 -195q-57 63 -135 99t-176 36q-207 0 -207 -170q0 -74 46 -110.5 t151 -55.5l149 -26q174 -31 268.5 -131.5t94.5 -270.5q0 -100 -35 -185t-104.5 -147.5t-171 -97.5t-236.5 -35q-180 0 -313.5 59.5t-215.5 162.5z" />
<glyph unicode="T" d="M49 1178v252h1131v-252h-412v-1178h-307v1178h-412z" />
<glyph unicode="U" d="M113 565v865h307v-906q0 -68 5 -124t24.5 -95t58.5 -60.5t106 -21.5q68 0 107 21.5t58.5 60.5t24.5 95.5t5 123.5v906h307v-865q0 -147 -19.5 -257.5t-74.5 -184.5t-153.5 -111t-254.5 -37t-254 37t-153 111t-74.5 184.5t-19.5 257.5z" />
<glyph unicode="V" d="M18 1430h342l168 -728l84 -411h17l86 411l170 728h325l-379 -1430h-434z" />
<glyph unicode="W" d="M23 1430h264l41 -857l12 -270h18l123 815h277l123 -815h18l12 262l41 865h254l-88 -1430h-389l-104 788h-21l-104 -788h-389z" />
<glyph unicode="X" d="M18 0l402 739l-375 691h350l117 -228l104 -229h17l106 229l123 228h322l-375 -695l401 -735h-350l-147 285l-101 225h-18l-102 -225l-152 -285h-322z" />
<glyph unicode="Y" d="M8 1430h342l152 -332l110 -281h17l110 281l152 332h330l-453 -924v-506h-307v506z" />
<glyph unicode="Z" d="M98 0v268l666 910h-645v252h989v-269l-666 -909h686v-252h-1030z" />
<glyph unicode="[" d="M375 -283v1839h663v-202h-420v-1434h420v-203h-663z" />
<glyph unicode="\" d="M150 1556h272l657 -1839h-272z" />
<glyph unicode="]" d="M190 -80h420v1434h-420v202h664v-1839h-664v203z" />
<glyph unicode="^" d="M55 600l400 830h321l398 -830l-240 -111l-313 662h-25l-313 -662z" />
<glyph unicode="_" d="M123 -145h983v-248h-983v248z" />
<glyph unicode="`" d="M307 1528l252 125l203 -398l-180 -88z" />
<glyph unicode="a" d="M106 291q0 166 121 245.5t355 79.5h170v54q0 94 -44 142t-149 48q-96 0 -155.5 -37t-102.5 -96l-166 147q53 90 167 148.5t292 58.5q217 0 339 -99t122 -300v-463h116v-219h-174q-94 0 -151.5 48t-67.5 138h-10q-29 -104 -114 -157.5t-208 -53.5q-154 0 -247 83t-93 233z M403 287q0 -55 43 -84t115 -29q80 0 135.5 39t55.5 113v127h-162q-186 0 -187 -125v-41z" />
<glyph unicode="b" d="M121 0v1516h303v-652h14q39 94 113 155.5t201 61.5q88 0 160.5 -32.5t125 -100t82 -172t29.5 -248.5q0 -143 -29.5 -247.5t-82 -172t-125 -100.5t-160.5 -33q-127 0 -201 60.5t-113 157.5h-14v-193h-303zM424 373q0 -84 58.5 -123t138.5 -39q102 0 157.5 62.5t55.5 172.5 v164q0 111 -55.5 173.5t-157.5 62.5q-80 0 -138.5 -39t-58.5 -123v-311z" />
<glyph unicode="c" d="M123 528q0 129 37 231.5t105.5 174.5t167.5 109.5t222 37.5q174 0 279.5 -70.5t161.5 -187.5l-234 -127q-29 61 -75 102.5t-132 41.5q-104 0 -160.5 -60.5t-56.5 -165.5v-172q0 -104 56.5 -164.5t164.5 -60.5q88 0 138.5 41t85.5 107l229 -132q-57 -117 -167 -187.5 t-288 -70.5q-125 0 -224 38t-167.5 110t-105.5 174t-37 231z" />
<glyph unicode="d" d="M80 528q0 143 29.5 248t82 172.5t125 100t160.5 32.5q63 0 112.5 -16t87.5 -45t65.5 -69t48.5 -87h14v652h303v-1516h-303v193h-14q-41 -96 -114 -157t-200 -61q-88 0 -160.5 33t-125 100.5t-82 172t-29.5 247.5zM395 446q0 -111 55.5 -173t157.5 -62q80 0 138.5 39 t58.5 123v311q0 84 -58.5 123t-138.5 39q-102 0 -157.5 -62.5t-55.5 -173.5v-164z" />
<glyph unicode="e" d="M102 524q0 129 36 232.5t102.5 176.5t162 110.5t213.5 37.5q119 0 213.5 -37.5t160 -107.5t101 -169t35.5 -222v-90h-723v-19q0 -102 63.5 -164.5t186.5 -62.5q94 0 162 36t117 95l164 -178q-61 -76 -172 -131.5t-281 -55.5q-266 0 -403.5 147.5t-137.5 401.5zM403 625 h426v16q0 104 -56.5 163.5t-154.5 59.5t-156.5 -60.5t-58.5 -162.5v-16z" />
<glyph unicode="f" d="M125 821v236h332v153q0 135 78.5 220.5t244.5 85.5h359v-236h-379v-223h379v-236h-379v-585h332v-236h-947v236h312v585h-332z" />
<glyph unicode="g" d="M96 -190q0 90 53.5 136t149.5 70v13q-68 20 -107.5 58t-39.5 108q0 78 52 114.5t138 57.5v12q-94 45 -146.5 127t-52.5 199q0 92 33 162.5t93.5 117.5t144.5 71.5t188 24.5q100 0 186 -22v57q0 61 43 102.5t119 41.5h187v-222h-254v-18q86 -45 134 -124t48 -191 q0 -92 -33 -162t-94 -118t-146 -72.5t-190 -24.5q-47 0 -90 5t-82 15q-23 -12 -38 -30.5t-15 -47.5q0 -25 12 -39t33.5 -21t50.5 -9t59 -2h242q113 0 193 -22.5t131 -63.5t73.5 -96t22.5 -123q0 -168 -141.5 -248t-444.5 -80q-152 0 -250 17.5t-156.5 50t-82 77.5t-23.5 99z M346 -127q0 -49 42 -81t142 -32h179q104 0 151 29t47 82q0 41 -32.5 64.5t-124.5 23.5h-363q-41 -35 -41 -86zM430 680q0 -70 41 -115t131 -45q92 0 134 45t42 115v49q0 70 -42 115t-134 45q-90 0 -131 -45t-41 -115v-49z" />
<glyph unicode="h" d="M133 0v1516h303v-652h13q18 45 44.5 84t64.5 69t88 47t114 17q76 0 139.5 -25.5t108.5 -76.5t70.5 -125t25.5 -170v-684h-303v643q0 205 -178 205q-35 0 -69 -9.5t-60.5 -28.5t-42 -48t-15.5 -68v-694h-303z" />
<glyph unicode="i" d="M193 0v236h335v585h-335v236h638v-821h312v-236h-950zM498 1335v60q0 61 40 102t142 41t142 -41t40 -102v-60q0 -59 -40 -101t-142 -42t-142 42t-40 101z" />
<glyph unicode="j" d="M184 821v236h713v-1161q0 -133 -80 -219.5t-242 -86.5h-387v236h406v995h-410zM563 1335v60q0 61 40 102t142 41q100 0 141.5 -41t41.5 -102v-60q0 -59 -41.5 -101t-141.5 -42q-102 0 -142 42t-40 101z" />
<glyph unicode="k" d="M133 0v1516h303v-861h15l141 166l221 236h348l-409 -418l452 -639h-360l-307 467l-101 -100v-367h-303z" />
<glyph unicode="l" d="M139 0v236h324v1044h-324v236h627v-1280h324v-236h-951z" />
<glyph unicode="m" d="M61 0v1057h244v-156h14q25 74 71 127t130 53q154 0 189 -180h12q12 37 30.5 70t45 57.5t63.5 38.5t86 14q221 0 221 -325v-756h-243v725q0 74 -26 103.5t-67 29.5q-39 0 -66.5 -25.5t-27.5 -78.5v-754h-245v725q0 74 -24 103.5t-65 29.5t-69.5 -25.5t-28.5 -78.5v-754 h-244z" />
<glyph unicode="n" d="M133 0v1057h303v-193h13q18 45 44.5 84t64.5 69t88 47t114 17q76 0 139.5 -25.5t108.5 -76.5t70.5 -125t25.5 -170v-684h-303v643q0 205 -178 205q-35 0 -69 -9.5t-60.5 -28.5t-42 -48t-15.5 -68v-694h-303z" />
<glyph unicode="o" d="M84 528q0 129 37 231.5t105.5 174.5t167 109.5t220.5 37.5q123 0 221.5 -37.5t167 -109.5t105.5 -174.5t37 -231.5t-37 -231t-105.5 -174t-167 -110t-221.5 -38t-221 38t-166.5 110t-105.5 174t-37 231zM397 444q0 -117 57.5 -180t159.5 -63t159.5 63.5t57.5 179.5v168 q0 117 -57 180.5t-160 63.5q-102 0 -159.5 -63.5t-57.5 -180.5v-168z" />
<glyph unicode="p" d="M121 -410v1467h303v-193h14q39 94 113 155.5t201 61.5q88 0 160.5 -32.5t125 -100t82 -172t29.5 -248.5q0 -143 -29.5 -247.5t-82 -172t-125 -100.5t-160.5 -33q-127 0 -201 60.5t-113 157.5h-14v-603h-303zM424 373q0 -84 58.5 -123t138.5 -39q102 0 157.5 62.5 t55.5 172.5v164q0 111 -55.5 173.5t-157.5 62.5q-80 0 -138.5 -39t-58.5 -123v-311z" />
<glyph unicode="q" d="M80 528q0 143 29.5 248t82 172.5t125 100t160.5 32.5q63 0 112.5 -16t87.5 -45t65.5 -69t48.5 -87h14v193h303v-1467h-303v603h-14q-41 -96 -114 -157t-200 -61q-88 0 -160.5 33t-125 100.5t-82 172t-29.5 247.5zM395 446q0 -111 55.5 -173t157.5 -62q80 0 138.5 39 t58.5 123v311q0 84 -58.5 123t-138.5 39q-102 0 -157.5 -62.5t-55.5 -173.5v-164z" />
<glyph unicode="r" d="M152 0v236h243v585h-243v236h546v-299h15q14 57 39.5 111.5t65.5 96.5t97.5 66.5t135.5 24.5h100v-279h-225q-113 0 -170.5 -66.5t-57.5 -162.5v-313h349v-236h-895z" />
<glyph unicode="s" d="M100 174l170 158q61 -68 144.5 -106t189.5 -38q90 0 141.5 28t51.5 85q0 45 -35 62.5t-96 27.5l-170 27q-72 10 -133.5 31.5t-106.5 58.5t-71.5 90t-26.5 129q0 166 127 260t356 94q156 0 265.5 -42t174.5 -119l-151 -172q-47 51 -121 85.5t-178 34.5q-176 0 -176 -106 q0 -47 34.5 -64.5t96.5 -27.5l168 -27q72 -10 133 -31.5t107 -58.5t73 -90t27 -129q0 -166 -128 -262.5t-364 -96.5q-176 0 -306 53.5t-196 145.5z" />
<glyph unicode="t" d="M86 821v236h186q68 0 96.5 26.5t28.5 98.5v248h279v-373h411v-236h-411v-585h411v-236h-391q-164 0 -243.5 86t-79.5 219v516h-287z" />
<glyph unicode="u" d="M125 373v684h303v-643q0 -205 178 -205q35 0 69 9t59.5 28.5t42 48.5t16.5 67v695h303v-1057h-303v193h-13q-35 -90 -109.5 -154t-201.5 -64q-76 0 -139.5 26t-108.5 77t-70.5 124.5t-25.5 170.5z" />
<glyph unicode="v" d="M55 1057h320l137 -453l100 -352h17l100 352l137 453h308l-379 -1057h-361z" />
<glyph unicode="w" d="M14 1057h252l76 -856h20l125 856h267l123 -856h20l78 856h239l-124 -1057h-361l-104 729h-21l-104 -729h-361z" />
<glyph unicode="x" d="M47 0l395 537l-368 520h346l112 -170l86 -137h17l88 137l115 170h317l-369 -504l396 -553h-348l-134 199l-92 141h-16l-90 -141l-135 -199h-320z" />
<glyph unicode="y" d="M39 1057h326l153 -445l96 -307h17l92 307l158 445h309l-498 -1227q-47 -117 -125 -178.5t-213 -61.5h-209v236h254l66 180z" />
<glyph unicode="z" d="M135 0v252l588 569h-567v236h917v-252l-588 -569h609v-236h-959z" />
<glyph unicode="{" d="M188 535v204h185q111 0 166 29t55 82q0 33 -13.5 62.5t-48.5 70.5q-18 20 -38.5 45t-37 55.5t-27.5 69.5t-11 90v92q0 96 59.5 158.5t198.5 62.5h364v-202h-378v-99q0 -78 25.5 -118.5t55.5 -81.5q35 -43 66 -92.5t31 -114.5q0 -86 -59.5 -137.5t-182.5 -65.5v-16 q123 -14 182.5 -65.5t59.5 -137.5q0 -66 -31 -115t-66 -92q-31 -41 -56 -82t-25 -119v-98h378v-203h-364q-139 0 -198.5 62.5t-59.5 159.5v92q0 51 11 90t27.5 69.5t37 54t38.5 46.5q35 41 48.5 70.5t13.5 62.5q0 53 -55.5 82t-165.5 29h-185z" />
<glyph unicode="|" d="M485 -283v1839h258v-1839h-258z" />
<glyph unicode="}" d="M188 -80h379v98q0 78 -25.5 119t-56.5 82q-35 43 -65.5 92t-30.5 115q0 86 59.5 137t182.5 66v16q-123 14 -182.5 65.5t-59.5 137.5q0 66 31 115t65 92q31 41 56.5 82t25.5 118v99h-379v202h365q139 0 198.5 -62t59.5 -159v-92q0 -51 -11.5 -90t-27.5 -69.5t-36.5 -55 t-39.5 -45.5q-35 -41 -48 -70.5t-13 -62.5q0 -53 55 -82t166 -29h184v-204h-184q-111 0 -166 -29t-55 -82q0 -33 13.5 -62.5t47.5 -70.5q18 -23 39 -46.5t37 -54t27.5 -69.5t11.5 -90v-92q0 -96 -59.5 -159t-198.5 -63h-365v203z" />
<glyph unicode="~" d="M74 420q33 250 120 361.5t232 111.5q84 0 145.5 -39t116.5 -117q41 -61 67.5 -96t61.5 -35q51 0 77 69.5t44 192.5l217 -41q-33 -250 -120 -361.5t-232 -111.5q-84 0 -145.5 39t-116.5 117q-41 61 -68 96t-61 35q-51 0 -77 -69.5t-44 -192.5z" />
<glyph unicode="&#xa0;" />
<glyph unicode="&#xa2;" d="M123 528q0 223 106.5 364.5t298.5 176.5v221h234v-217q127 -20 207 -85.5t127 -164.5l-219 -118q-20 43 -53 79.5t-81 57.5v-629q53 18 91 56t63 85l215 -121q-47 -98 -133 -163.5t-217 -85.5v-217h-234v221q-193 35 -299 176t-106 364zM414 442q0 -80 33.5 -138 t101.5 -87v623q-66 -27 -100.5 -85.5t-34.5 -140.5v-172z" />
<glyph unicode="&#xa3;" d="M94 551v225h146q-25 57 -44.5 119.5t-19.5 136.5q0 94 37 172t103.5 133.5t160.5 86t209 30.5q156 0 268.5 -55.5t190.5 -159.5l-203 -190q-47 61 -103.5 101t-142.5 40q-96 0 -151.5 -54.5t-55.5 -152.5q0 -57 17.5 -107.5t40.5 -99.5h358v-225h-287v-14 q0 -53 -14 -94.5t-37.5 -72t-52.5 -53t-55 -36.5v-19h674v-262h-992v279q82 35 128 98t46 149q0 16 -2 25h-219z" />
<glyph unicode="&#xa5;" d="M0 1430h319l289 -746h21l291 746h309l-326 -746h211v-231h-354v-222h354v-231h-999v231h354v222h-354v231h213z" />
<glyph unicode="&#xa8;" d="M225 1339v54q0 53 36 90t128 37t129 -37t37 -90v-54q0 -53 -37 -91t-129 -38t-128 38t-36 91zM674 1339v54q0 53 37 90t129 37t128 -37t36 -90v-54q0 -53 -36 -91t-128 -38t-129 38t-37 91z" />
<glyph unicode="&#xa9;" d="M0 715q0 156 48 281.5t131 213.5t194.5 135.5t240.5 47.5t241 -47.5t195 -135.5t131 -214t48 -281q0 -158 -48 -283t-131 -213t-195 -135t-241 -47t-240.5 47t-194.5 135t-131 213t-48 283zM129 653q0 -104 37 -196t101.5 -161t153.5 -107.5t193 -38.5t193.5 38.5 t154 107.5t101.5 161t37 196v123q0 104 -37 196.5t-101.5 161t-153.5 107.5t-194 39q-104 0 -193 -39t-153.5 -107.5t-101.5 -160.5t-37 -197v-123zM256 713q0 92 27.5 166.5t78 127t119 81t152.5 28.5q127 0 202.5 -58.5t112.5 -150.5l-174 -88q-20 47 -52 77t-85 30 q-61 0 -96 -38t-35 -97v-150q0 -59 34.5 -98t98.5 -39q57 0 91 30.5t56 75.5l175 -88q-18 -41 -45 -78.5t-67 -66.5t-93 -46.5t-123 -17.5q-86 0 -155.5 29t-119 81t-76 126t-26.5 164z" />
<glyph unicode="&#xab;" d="M123 422v270l410 344l92 -196l-266 -283l266 -285l-92 -194zM626 422v270l410 344l92 -196l-266 -283l266 -285l-92 -194z" />
<glyph unicode="&#xad;" d="M287 479v291h655v-291h-655z" />
<glyph unicode="&#xae;" d="M240 1081q0 80 28.5 148.5t79.5 118t120 78t146 28.5q78 0 146.5 -28.5t119 -78t80 -118t29.5 -148.5t-29.5 -148.5t-80 -117.5t-119 -77.5t-146.5 -28.5t-146.5 28.5t-119.5 77.5t-79.5 117.5t-28.5 148.5zM338 1061q0 -61 21.5 -110.5t58.5 -84.5t87 -54t109 -19 t109.5 19t87.5 54t58.5 84t21.5 111v41q0 61 -21.5 110.5t-58.5 84t-87 54t-110 19.5q-59 0 -109 -19.5t-87 -54t-58.5 -84t-21.5 -110.5v-41zM455 893v379h188q78 0 113 -37t35 -92q0 -84 -70 -117l80 -133h-125l-62 111h-45v-111h-114zM569 1087h49q53 0 54 41v15 q0 41 -54 41h-49v-97z" />
<glyph unicode="&#xb4;" d="M467 1255l203 398l252 -125l-275 -361z" />
<glyph unicode="&#xb8;" d="M389 -344l94 115q20 -25 54 -42.5t81 -17.5q39 0 65 12.5t26 38.5q0 12 -6.5 24.5t-23.5 24t-47 20.5t-77 13l-43 4l45 213h137l-37 -174l9 -8q25 6 49 10.5t49 4.5q61 0 105 -33t44 -109q0 -53 -22.5 -88t-60 -57.5t-87 -31.5t-100.5 -9q-106 0 -166.5 29.5t-87.5 60.5z " />
<glyph unicode="&#xbb;" d="M103 272l266 285l-266 283l92 196l409 -344v-270l-409 -344zM606 272l266 285l-266 283l92 196l409 -344v-270l-409 -344z" />
<glyph unicode="&#x2c6;" d="M217 1284l270 326h254l271 -326l-154 -119l-248 236l-248 -236z" />
<glyph unicode="&#x2da;" d="M311 1417q0 63 23.5 116.5t64.5 92.5t96.5 61.5t118.5 22.5t118.5 -21.5t96.5 -60.5t65 -93t24 -118q0 -63 -24 -116.5t-65 -92.5t-96.5 -61.5t-118.5 -22.5t-118.5 21.5t-96.5 60.5t-64.5 93.5t-23.5 117.5zM510 1382q0 -49 26.5 -76.5t77.5 -27.5t78 28.5t27 75.5v70 q0 49 -26.5 76.5t-78.5 27.5q-51 0 -77.5 -28.5t-26.5 -75.5v-70z" />
<glyph unicode="&#x2dc;" d="M225 1386q37 55 94.5 93.5t139.5 38.5q47 0 83 -12.5t74 -28.5q45 -18 82 -31.5t78 -13.5q35 0 61.5 12t59.5 39l107 -140q-37 -55 -94.5 -93t-139.5 -38q-47 0 -83 12.5t-75 28.5q-45 18 -81.5 31.5t-77.5 13.5q-35 0 -61.5 -12t-59.5 -39z" />
<glyph unicode="&#x400;" d="M164 0v1430h913v-252h-606v-328h586v-252h-586v-346h606v-252h-913zM313 1876l252 125l203 -397l-180 -88z" />
<glyph unicode="&#x401;" d="M164 0v1430h913v-252h-606v-328h586v-252h-586v-346h606v-252h-913zM231 1688v53q0 53 36 90t128 37t129 -37t37 -90v-53q0 -53 -37 -91t-129 -38t-128 37.5t-36 91.5zM680 1688v53q0 53 37 90t129 37t128 -37t36 -90v-53q0 -53 -36 -91t-128 -38t-129 37.5t-37 91.5z " />
<glyph unicode="&#x402;" d="M10 1178v252h850v-252h-270v-314h10q43 18 95.5 31.5t117.5 13.5q98 0 169 -23.5t116 -77.5t66.5 -142t21.5 -217v-535q0 -133 -79 -219t-243 -86h-274v252h287v596q0 119 -35 162t-109 43q-41 0 -76.5 -9.5t-66.5 -25.5v-627h-309v1178h-271z" />
<glyph unicode="&#x403;" d="M219 0v1430h862v-252h-553v-1178h-309zM502 1604l203 397l252 -125l-275 -360z" />
<glyph unicode="&#x404;" d="M72 715q0 352 139 545.5t432 193.5q115 0 202 -28.5t150.5 -81t103.5 -124t60 -157.5l-287 -70q-10 43 -26.5 82t-43 67.5t-67.5 46t-98 17.5q-129 0 -182.5 -95t-55.5 -261h375v-252h-375v-8q0 -172 53.5 -269.5t184.5 -97.5q57 0 98 17.5t68.5 46t43 67.5t25.5 82 l287 -69q-20 -86 -60 -158t-103.5 -124t-150.5 -81t-202 -29q-293 0 -432 193.5t-139 546.5z" />
<glyph unicode="&#x405;" d="M63 197l179 196q78 -86 171 -127t189 -41q111 0 168 49.5t57 141.5q0 76 -44 114.5t-148 55.5l-150 24q-193 33 -278.5 142.5t-85.5 267.5q0 207 135 320.5t379 113.5q166 0 289 -51t198 -139l-174 -195q-57 63 -135 99t-176 36q-207 0 -207 -170q0 -74 46 -110.5 t151 -55.5l149 -26q174 -31 268.5 -131.5t94.5 -270.5q0 -100 -35 -185t-104.5 -147.5t-171 -97.5t-236.5 -35q-180 0 -313.5 59.5t-215.5 162.5z" />
<glyph unicode="&#x406;" d="M154 0v227h307v975h-307v228h921v-228h-307v-975h307v-227h-921z" />
<glyph unicode="&#x407;" d="M154 0v227h307v975h-307v228h921v-228h-307v-975h307v-227h-921zM225 1688v53q0 53 36 90t128 37t129 -37t37 -90v-53q0 -53 -37 -91t-129 -38t-128 37.5t-36 91.5zM674 1688v53q0 53 37 90t129 37t128 -37t36 -90v-53q0 -53 -36 -91t-128 -38t-129 37.5t-37 91.5z" />
<glyph unicode="&#x408;" d="M78 373l291 59q16 -92 62 -149.5t138 -57.5q78 0 122 50.5t44 154.5v748h-471v252h783v-1031q0 -96 -34 -175t-96.5 -134t-150.5 -85t-197 -30q-219 0 -338.5 110t-152.5 288z" />
<glyph unicode="&#x409;" d="M-8 -12v243h78q27 27 47 77t34.5 141.5t21.5 235.5t7 362v383h611v-517h55q82 0 150.5 -30.5t117.5 -90t77 -144.5t28 -191q0 -109 -28 -193t-77 -143.5t-117.5 -90t-150.5 -30.5h-318v1198h-110v-172q0 -248 -9.5 -410.5t-30 -268t-51 -167t-73.5 -104.5 q-47 -47 -108.5 -67.5t-133.5 -20.5h-20zM791 231h22q57 0 96 37t39 115v147q0 78 -39 115t-96 37h-22v-451z" />
<glyph unicode="&#x40a;" d="M57 0v1430h262v-590h183v590h262v-517h61q180 0 287 -119.5t107 -336.5t-106.5 -337t-287.5 -120h-323v608h-183v-608h-262zM764 231h29q72 0 113.5 37t41.5 115v147q0 78 -42 115t-113 37h-29v-451z" />
<glyph unicode="&#x40b;" d="M10 1178v252h850v-252h-270v-314h10q43 18 95.5 31.5t117.5 13.5q98 0 169 -23.5t116 -77.5t66.5 -142t21.5 -217v-449h-309v457q0 119 -35 162t-109 43q-41 0 -76.5 -9.5t-66.5 -25.5v-627h-309v1178h-271z" />
<glyph unicode="&#x40c;" d="M125 0v1430h309v-582h180l230 582h305l-201 -510q-35 -86 -71.5 -125t-92.5 -52v-12q55 -12 90 -46t68 -116l123 -317h115v-252h-152q-96 0 -156.5 43t-101.5 152l-156 405h-180v-600h-309zM471 1604l203 397l252 -125l-275 -360z" />
<glyph unicode="&#x40d;" d="M113 0v1430h288v-531l-24 -383h20l430 914h289v-1430h-289v530l25 383h-21l-430 -913h-288zM307 1876l252 125l203 -397l-180 -88z" />
<glyph unicode="&#x40e;" d="M33 1430h325l209 -508l76 -246h6l66 246l180 508h311l-446 -1178q-27 -72 -58.5 -120t-70.5 -77.5t-89 -42t-114 -12.5h-205v252h242l39 98zM237 1862l236 88l65 -219q12 -6 39 -10.5t53 -4.5q27 0 53.5 4t39.5 11l65 219l236 -88l-43 -113q-43 -113 -129.5 -173 t-221.5 -60t-221 60t-129 173z" />
<glyph unicode="&#x40f;" d="M125 0v1430h309v-1178h361v1178h309v-1430h-344v-307h-291v307h-344z" />
<glyph unicode="&#x410;" d="M10 0l387 1430h434l388 -1430h-328l-90 344h-391l-88 -344h-312zM459 592h295l-140 541h-16z" />
<glyph unicode="&#x411;" d="M131 0v1430h887v-252h-578v-306h283q100 0 180 -31.5t136.5 -88t87 -136t30.5 -176.5q0 -96 -30.5 -176t-87 -139t-136.5 -92t-180 -33h-592zM440 242h226q170 0 170 151v86q0 152 -170 152h-226v-389z" />
<glyph unicode="&#x412;" d="M158 0v1430h501q211 0 323 -102.5t112 -278.5q0 -123 -60.5 -196t-173.5 -105v-13q133 -33 206 -114.5t73 -227.5q0 -180 -114 -286.5t-318 -106.5h-549zM457 215h155q111 0 162 37t51 135v59q0 98 -51 135t-162 37h-155v-403zM457 823h116q109 0 158 36t49 130v62 q0 94 -49 128.5t-158 34.5h-116v-391z" />
<glyph unicode="&#x413;" d="M219 0v1430h862v-252h-553v-1178h-309z" />
<glyph unicode="&#x414;" d="M23 252h102q35 39 65.5 101.5t52 157.5t34 225t12.5 302v392h768v-1178h137v-559h-283v307h-606v-307h-282v559zM430 252h330v934h-203v-193q0 -152 -9 -269.5t-25.5 -206.5t-40 -154.5t-52.5 -110.5z" />
<glyph unicode="&#x415;" d="M164 0v1430h913v-252h-606v-328h586v-252h-586v-346h606v-252h-913z" />
<glyph unicode="&#x416;" d="M4 0l96 510q18 102 59.5 153.5t119.5 67.5v12q-66 18 -106 65.5t-58 143.5l-90 478h260l110 -590h86v590h267v-590h86l110 590h260l-90 -478q-18 -96 -58 -143t-106 -66v-12q78 -16 119 -67.5t59 -153.5l97 -510h-277l-114 608h-86v-608h-267v608h-86l-114 -608h-277z " />
<glyph unicode="&#x417;" d="M78 180l178 197q61 -72 144 -112t169 -40q109 0 162 48.5t53 127.5v23q0 86 -44 125t-142 39h-197v248h197q84 0 123 47t39 131v18q0 174 -195 174q-92 0 -159.5 -38t-126.5 -103l-175 180q92 98 207 153.5t277 55.5q240 0 369.5 -102.5t129.5 -300.5q0 -127 -80.5 -208 t-215.5 -104v-12q70 -4 128 -25.5t101 -59.5t67.5 -93t24.5 -129q0 -102 -39 -184t-109.5 -139.5t-171 -89.5t-223.5 -32q-172 0 -291.5 57.5t-199.5 147.5z" />
<glyph unicode="&#x418;" d="M113 0v1430h288v-531l-24 -383h20l430 914h289v-1430h-289v530l25 383h-21l-430 -913h-288z" />
<glyph unicode="&#x419;" d="M113 0v1430h288v-531l-24 -383h20l430 914h289v-1430h-289v530l25 383h-21l-430 -913h-288zM221 1862l236 88l65 -219q12 -6 39 -10.5t53 -4.5q27 0 53.5 4t39.5 11l65 219l236 -88l-43 -113q-43 -113 -129.5 -173t-221.5 -60t-221 60t-129 173z" />
<glyph unicode="&#x41a;" d="M125 0v1430h309v-582h180l230 582h305l-201 -510q-35 -86 -71.5 -125t-92.5 -52v-12q55 -12 90 -46t68 -116l123 -317h115v-252h-152q-96 0 -156.5 43t-101.5 152l-156 405h-180v-600h-309z" />
<glyph unicode="&#x41b;" d="M25 -12v264h141q33 35 58.5 91t44 142t28.5 206t10 284v455h819v-1430h-309v1178h-225v-246q0 -188 -14.5 -326.5t-41 -237t-61.5 -162t-74 -102.5q-63 -63 -135.5 -89.5t-181.5 -26.5h-59z" />
<glyph unicode="&#x41c;" d="M80 0v1430h362l176 -482h17l176 482h338v-1430h-266v637l16 399h-18l-267 -735l-266 735h-18l16 -399v-637h-266z" />
<glyph unicode="&#x41d;" d="M125 0v1430h309v-580h361v580h309v-1430h-309v598h-361v-598h-309z" />
<glyph unicode="&#x41e;" d="M55 715q0 350 136.5 544.5t422.5 194.5q287 0 423.5 -194.5t136.5 -544.5t-136.5 -545t-423.5 -195t-423 195t-136 545zM383 590q0 -172 50 -269.5t181 -97.5t181.5 97.5t50.5 271.5v248q0 172 -50.5 269t-181.5 97t-181 -97t-50 -269v-250z" />
<glyph unicode="&#x41f;" d="M125 0v1430h979v-1430h-309v1178h-361v-1178h-309z" />
<glyph unicode="&#x420;" d="M156 0v1430h553q104 0 186 -32t138.5 -91.5t85 -143.5t28.5 -188t-28.5 -188.5t-85 -143.5t-138.5 -91t-186 -32h-244v-520h-309zM465 768h166q109 0 150.5 41t41.5 135v62q0 94 -42 135t-150 41h-166v-414z" />
<glyph unicode="&#x421;" d="M84 715q0 352 138 545.5t425 193.5q111 0 196 -29.5t146.5 -83t101 -129t62.5 -170.5l-287 -69q-12 51 -28.5 94t-42 73.5t-63.5 48t-91 17.5q-125 0 -177 -97t-52 -269v-250q0 -172 52 -269.5t177 -97.5q106 0 154.5 65.5t70.5 168.5l287 -70q-23 -94 -62.5 -170 t-101 -130t-146.5 -83t-196 -29q-287 0 -425 193.5t-138 546.5z" />
<glyph unicode="&#x422;" d="M49 1178v252h1131v-252h-412v-1178h-307v1178h-412z" />
<glyph unicode="&#x423;" d="M33 1430h325l209 -508l76 -246h6l66 246l180 508h311l-446 -1178q-27 -72 -58.5 -120t-70.5 -77.5t-89 -42t-114 -12.5h-205v252h242l39 98z" />
<glyph unicode="&#x424;" d="M49 713q0 287 107.5 437t306.5 175v170h303v-170q201 -25 307.5 -173t106.5 -439q0 -287 -107.5 -437.5t-306.5 -175.5v-170h-303v170q-201 25 -307.5 173.5t-106.5 439.5zM319 575q0 -242 164 -260v795q-164 -18 -164 -260v-275zM745 315q164 18 164 260v275 q0 242 -164 260v-795z" />
<glyph unicode="&#x425;" d="M18 0l402 739l-375 691h350l117 -228l104 -229h17l106 229l123 228h322l-375 -695l401 -735h-350l-147 285l-101 225h-18l-102 -225l-152 -285h-322z" />
<glyph unicode="&#x426;" d="M94 0v1430h309v-1178h324v1178h309v-1178h158v-559h-291v307h-809z" />
<glyph unicode="&#x427;" d="M76 973v457h309v-465q0 -147 47 -202.5t158 -55.5q61 0 111.5 9t93.5 25v689h309v-1430h-309v504h-11q-47 -18 -109.5 -31.5t-135.5 -13.5q-121 0 -209 27.5t-144.5 88t-83 158.5t-26.5 240z" />
<glyph unicode="&#x428;" d="M57 0v1430h262v-1199h164v1199h262v-1199h164v1199h262v-1430h-1114z" />
<glyph unicode="&#x429;" d="M57 0v1430h246v-1199h150v1199h245v-1199h150v1199h246v-1199h116v-538h-225v307h-928z" />
<glyph unicode="&#x42a;" d="M10 1178v252h547v-517h217q201 0 317.5 -121.5t116.5 -334.5q0 -104 -30.5 -188.5t-87 -145t-136.5 -92t-180 -31.5h-526v1178h-238zM557 242h160q170 0 170 151v127q0 152 -170 152h-160v-430z" />
<glyph unicode="&#x42b;" d="M57 0v1430h262v-517h91q92 0 165.5 -31.5t126 -92t80 -144.5t27.5 -188t-27.5 -189.5t-80 -145t-126 -91t-165.5 -31.5h-353zM319 231h46q174 0 174 152v147q0 152 -174 152h-46v-451zM909 0v1430h262v-1430h-262z" />
<glyph unicode="&#x42c;" d="M139 0v1430h310v-517h268q201 0 317.5 -121.5t116.5 -334.5q0 -104 -30.5 -188.5t-87 -145t-136.5 -92t-180 -31.5h-578zM449 242h210q170 0 170 151v127q0 152 -170 152h-210v-430z" />
<glyph unicode="&#x42d;" d="M72 367l286 69q8 -43 24.5 -82t44.5 -67.5t68 -46t99 -17.5q131 0 184 97.5t53 269.5v8h-374v252h374q-2 166 -55 261t-182 95q-59 0 -99 -17.5t-67 -46t-43 -67.5t-27 -82l-286 70q20 86 60 157.5t103.5 124t150.5 81t202 28.5q293 0 432 -193.5t139 -545.5t-139 -546 t-432 -194q-115 0 -202 29t-150.5 81t-103.5 124t-60 158z" />
<glyph unicode="&#x42e;" d="M57 0v1430h262v-590h113q4 174 27.5 291.5t67.5 189.5t113 102.5t165 30.5q98 0 168.5 -31.5t117 -114.5t68 -226.5t21.5 -366.5q0 -219 -22.5 -362.5t-70 -227.5t-118 -117t-164.5 -33q-92 0 -159.5 31t-114 103.5t-70 194.5t-29.5 304h-113v-608h-262zM698 461 q0 -78 7.5 -128t20.5 -78t32.5 -38t46.5 -10t46 10t32.5 38t20.5 78t7 128v508q0 78 -7 128t-20.5 77.5t-33 38t-45.5 10.5q-27 0 -46.5 -10.5t-32.5 -38t-20.5 -77.5t-7.5 -128v-508z" />
<glyph unicode="&#x42f;" d="M66 0v252h122l107 205q31 59 64.5 85.5t82.5 32.5v13q-170 10 -256 113.5t-86 285.5q0 100 31 181t87 139.5t136 90.5t181 32h557v-1430h-310v547h-104l-195 -375q-27 -49 -52 -83t-56 -53.5t-66 -27.5t-80 -8h-163zM422 936q0 -152 170 -152h190v404h-190 q-170 0 -170 -152v-100z" />
<glyph unicode="&#x430;" d="M106 291q0 166 121 245.5t355 79.5h170v54q0 94 -44 142t-149 48q-96 0 -155.5 -37t-102.5 -96l-166 147q53 90 167 148.5t292 58.5q217 0 339 -99t122 -300v-463h116v-219h-174q-94 0 -151.5 48t-67.5 138h-10q-29 -104 -114 -157.5t-208 -53.5q-154 0 -247 83t-93 233z M403 287q0 -55 43 -84t115 -29q80 0 135.5 39t55.5 113v127h-162q-186 0 -187 -125v-41z" />
<glyph unicode="&#x431;" d="M98 571q0 242 35 416t112 289t200.5 172t302.5 65l317 15v-275l-287 -10q-104 -4 -172.5 -29.5t-108.5 -77t-57.5 -130t-21.5 -189.5h14q35 102 105.5 156.5t181.5 54.5q92 0 168 -32.5t131 -95t85 -156t30 -216.5q0 -129 -36 -231t-102.5 -174t-163 -110t-215.5 -38 q-240 0 -379 154t-139 442zM414 444q0 -117 54 -180t148 -63q92 0 147.5 63.5t55.5 167.5v160q0 104 -53 157.5t-150 53.5q-94 0 -148 -63.5t-54 -180.5v-115z" />
<glyph unicode="&#x432;" d="M164 0v1057h604q147 0 225 -74t78 -197q0 -90 -52 -149t-171 -82v-10q127 -10 195.5 -69.5t68.5 -164.5q0 -143 -90 -227t-250 -84h-608zM459 215h260q90 0 90 86v49q0 45 -24.5 66.5t-65.5 21.5h-260v-223zM459 618h223q41 0 63.5 24t22.5 67v43q0 43 -22.5 66.5 t-63.5 23.5h-223v-224z" />
<glyph unicode="&#x433;" d="M250 0v1057h799v-236h-496v-821h-303z" />
<glyph unicode="&#x434;" d="M20 236h123q53 80 84 203.5t31 293.5v324h772v-821h164v-523h-274v287h-625v-287h-275v523zM444 236h293v585h-207v-96q0 -160 -22.5 -285t-63.5 -204z" />
<glyph unicode="&#x435;" d="M102 524q0 129 36 232.5t102.5 176.5t162 110.5t213.5 37.5q119 0 213.5 -37.5t160 -107.5t101 -169t35.5 -222v-90h-723v-19q0 -102 63.5 -164.5t186.5 -62.5q94 0 162 36t117 95l164 -178q-61 -76 -172 -131.5t-281 -55.5q-266 0 -403.5 147.5t-137.5 401.5zM403 625 h426v16q0 104 -56.5 163.5t-154.5 59.5t-156.5 -60.5t-58.5 -162.5v-16z" />
<glyph unicode="&#x436;" d="M29 0l86 348q20 82 56 126t110 63v14q-59 18 -94 57t-54 111l-88 338h250l106 -416h93v416h241v-416h92l109 416h248l-88 -338q-18 -72 -53 -111t-95 -57v-14q74 -18 110 -62.5t56 -126.5l86 -348h-262l-102 430h-101v-430h-241v430h-101l-104 -430h-260z" />
<glyph unicode="&#x437;" d="M104 172l175 162q61 -68 134.5 -100.5t186.5 -32.5q94 0 143.5 32.5t49.5 88.5v12q0 94 -115 94h-248v201h221q66 0 93.5 27.5t27.5 74.5v12q0 47 -46 80t-140 33q-92 0 -159 -29.5t-126 -91.5l-168 156q84 90 195.5 140t283.5 50q111 0 197 -21.5t146.5 -60t91 -91 t30.5 -113.5q0 -98 -60.5 -159t-158.5 -79v-10q104 -16 172 -82t68 -170q0 -143 -129 -231.5t-377 -88.5q-166 0 -293 53.5t-195 143.5z" />
<glyph unicode="&#x438;" d="M139 0v1057h295v-340l-24 -311h12l383 651h285v-1057h-295v340l24 311h-12l-383 -651h-285z" />
<glyph unicode="&#x439;" d="M139 0v1057h295v-340l-24 -311h12l383 651h285v-1057h-295v340l24 311h-12l-383 -651h-285zM225 1513l236 89l65 -220q12 -6 39 -10t53 -4q27 0 53.5 4t39.5 10l65 220l236 -89l-43 -112q-43 -113 -129.5 -173.5t-221.5 -60.5t-221 60.5t-129 173.5z" />
<glyph unicode="&#x43a;" d="M145 0v1057h304v-406h155l213 406h322l-205 -365q-35 -66 -75 -95.5t-91 -39.5v-12q59 -12 97 -44t77 -108l80 -157h113v-236h-142q-86 0 -146.5 35t-103.5 119l-139 266h-155v-420h-304z" />
<glyph unicode="&#x43b;" d="M45 -12v248h143q45 55 70 157.5t25 292.5v371h807v-1057h-304v821h-231v-143q0 -129 -10 -225.5t-28.5 -166t-43 -116.5t-53.5 -76q-59 -59 -126 -82.5t-165 -23.5h-84z" />
<glyph unicode="&#x43c;" d="M102 0v1057h308l211 -445h16l211 445h278v-1057h-245v506l10 186h-17l-260 -547l-260 547h-16l10 -186v-506h-246z" />
<glyph unicode="&#x43d;" d="M139 0v1057h303v-404h344v404h304v-1057h-304v418h-344v-418h-303z" />
<glyph unicode="&#x43e;" d="M84 528q0 129 37 231.5t105.5 174.5t167 109.5t220.5 37.5q123 0 221.5 -37.5t167 -109.5t105.5 -174.5t37 -231.5t-37 -231t-105.5 -174t-167 -110t-221.5 -38t-221 38t-166.5 110t-105.5 174t-37 231zM397 444q0 -117 57.5 -180t159.5 -63t159.5 63.5t57.5 179.5v168 q0 117 -57 180.5t-160 63.5q-102 0 -159.5 -63.5t-57.5 -180.5v-168z" />
<glyph unicode="&#x43f;" d="M139 0v1057h951v-1057h-304v821h-344v-821h-303z" />
<glyph unicode="&#x440;" d="M121 -410v1467h303v-193h14q39 94 113 155.5t201 61.5q88 0 160.5 -32.5t125 -100t82 -172t29.5 -248.5q0 -143 -29.5 -247.5t-82 -172t-125 -100.5t-160.5 -33q-127 0 -201 60.5t-113 157.5h-14v-603h-303zM424 373q0 -84 58.5 -123t138.5 -39q102 0 157.5 62.5 t55.5 172.5v164q0 111 -55.5 173.5t-157.5 62.5q-80 0 -138.5 -39t-58.5 -123v-311z" />
<glyph unicode="&#x441;" d="M123 528q0 129 37 231.5t105.5 174.5t167.5 109.5t222 37.5q174 0 279.5 -70.5t161.5 -187.5l-234 -127q-29 61 -75 102.5t-132 41.5q-104 0 -160.5 -60.5t-56.5 -165.5v-172q0 -104 56.5 -164.5t164.5 -60.5q88 0 138.5 41t85.5 107l229 -132q-57 -117 -167 -187.5 t-288 -70.5q-125 0 -224 38t-167.5 110t-105.5 174t-37 231z" />
<glyph unicode="&#x442;" d="M117 821v236h995v-236h-348v-821h-299v821h-348z" />
<glyph unicode="&#x443;" d="M39 1057h326l153 -445l96 -307h17l92 307l158 445h309l-498 -1227q-47 -117 -125 -178.5t-213 -61.5h-209v236h254l66 180z" />
<glyph unicode="&#x444;" d="M51 528q0 154 15.5 259.5t46 171t77 94t105.5 28.5q61 0 106 -32.5t76 -124.5h15v530h245v-530h15q31 92 75.5 124.5t106.5 32.5q59 0 105 -28.5t77 -94t46.5 -171t15.5 -259.5t-15.5 -259t-46.5 -170.5t-77 -94.5t-105 -29q-61 0 -106.5 33t-75.5 125h-15v-543h-245v543 h-15q-31 -92 -76 -125t-106 -33q-59 0 -105.5 29t-77 94.5t-46 171t-15.5 258.5zM305 406q0 -115 27 -160t78 -45q45 0 65.5 30.5t20.5 110.5v373q0 80 -20.5 110.5t-65.5 30.5q-51 0 -78 -45t-27 -160v-245zM733 342q0 -80 20.5 -110.5t65.5 -30.5q51 0 78 45t27 160v245 q0 115 -27 160t-78 45q-45 0 -65.5 -30.5t-20.5 -110.5v-373z" />
<glyph unicode="&#x445;" d="M47 0l395 537l-368 520h346l112 -170l86 -137h17l88 137l115 170h317l-369 -504l396 -553h-348l-134 199l-92 141h-16l-90 -141l-135 -199h-320z" />
<glyph unicode="&#x446;" d="M113 0v1057h303v-821h311v821h303v-821h164v-523h-274v287h-807z" />
<glyph unicode="&#x447;" d="M115 682v375h303v-361q0 -80 38 -115.5t128 -35.5q92 0 137 30.5t45 86.5v395h303v-1057h-303v440h-10q-49 -66 -120 -103.5t-173 -37.5q-182 0 -265 94t-83 289z" />
<glyph unicode="&#x448;" d="M61 0v1057h244v-836h187v836h243v-836h187v836h243v-1057h-1104z" />
<glyph unicode="&#x449;" d="M53 0v1057h242v-836h158v836h241v-836h158v836h242v-836h129v-508h-217v287h-953z" />
<glyph unicode="&#x44a;" d="M31 821v236h538v-301h228q78 0 145.5 -24.5t117.5 -73t78.5 -118t28.5 -161.5t-28.5 -163t-79.5 -119t-120 -72.5t-151 -24.5h-522v821h-235zM569 221h162q59 0 95 37t36 96v47q0 59 -35.5 96.5t-95.5 37.5h-162v-314z" />
<glyph unicode="&#x44b;" d="M61 0v1057h254v-301h119q78 0 145.5 -24.5t118 -73t79 -118t28.5 -161.5t-28.5 -163t-80 -119t-120 -72.5t-150.5 -24.5h-365zM315 207h109q59 0 92 34.5t33 110.5v51q0 76 -33 111t-92 35h-109v-342zM911 0v1057h254v-1057h-254z" />
<glyph unicode="&#x44c;" d="M176 0v1057h303v-301h271q78 0 145.5 -24.5t117.5 -73t78.5 -118t28.5 -161.5t-28.5 -163t-79.5 -119t-120 -72.5t-151 -24.5h-565zM479 221h205q59 0 95 37t36 96v47q0 59 -36 96.5t-95 37.5h-205v-314z" />
<glyph unicode="&#x44d;" d="M121 225l219 125q31 -66 84 -107.5t147 -41.5q111 0 171.5 60.5t64.5 166.5h-332v201h332q-4 106 -64.5 166.5t-175.5 60.5q-92 0 -142 -41t-81 -113l-223 121q27 57 66.5 105.5t94 82t125 52t160.5 18.5q127 0 227.5 -37.5t169 -109.5t105.5 -174.5t37 -231.5t-37 -231 t-105.5 -174t-168 -110t-224.5 -38q-174 0 -282.5 69t-167.5 181z" />
<glyph unicode="&#x44e;" d="M61 0v1057h254v-416h131q18 233 105.5 336.5t253.5 103.5q94 0 163.5 -30.5t113.5 -97t65.5 -171t21.5 -254.5t-22.5 -254t-67.5 -170.5t-113.5 -97.5t-160.5 -31q-174 0 -259 107.5t-100 347.5h-131v-430h-254zM709 418q0 -70 5 -114t17 -69.5t30.5 -35t45.5 -9.5 t45 9.5t30.5 35t17.5 69.5t5 114v221q0 70 -5 114t-17.5 69.5t-30.5 34.5t-45 9t-45.5 -9t-30.5 -34.5t-17 -69.5t-5 -114v-221z" />
<glyph unicode="&#x44f;" d="M92 0v236h123l51 90q51 86 158 86v12q-133 12 -217 81.5t-84 203.5q0 80 26.5 144.5t73.5 109.5t113.5 69.5t144.5 24.5h590v-1057h-303v379h-131l-127 -225q-49 -88 -106.5 -121t-149.5 -33h-162zM428 684q0 -41 29.5 -72.5t85.5 -31.5h225v262h-225q-55 0 -85 -35 t-30 -76v-47z" />
<glyph unicode="&#x450;" d="M102 524q0 129 36 232.5t102.5 176.5t162 110.5t213.5 37.5q119 0 213.5 -37.5t160 -107.5t101 -169t35.5 -222v-90h-723v-19q0 -102 63.5 -164.5t186.5 -62.5q94 0 162 36t117 95l164 -178q-61 -76 -172 -131.5t-281 -55.5q-266 0 -403.5 147.5t-137.5 401.5zM309 1528 l252 125l203 -398l-180 -88zM403 625h426v16q0 104 -56.5 163.5t-154.5 59.5t-156.5 -60.5t-58.5 -162.5v-16z" />
<glyph unicode="&#x451;" d="M102 524q0 129 36 232.5t102.5 176.5t162 110.5t213.5 37.5q119 0 213.5 -37.5t160 -107.5t101 -169t35.5 -222v-90h-723v-19q0 -102 63.5 -164.5t186.5 -62.5q94 0 162 36t117 95l164 -178q-61 -76 -172 -131.5t-281 -55.5q-266 0 -403.5 147.5t-137.5 401.5zM227 1339 v54q0 53 36 90t128 37t129 -37t37 -90v-54q0 -53 -37 -91t-129 -38t-128 38t-36 91zM403 625h426v16q0 104 -56.5 163.5t-154.5 59.5t-156.5 -60.5t-58.5 -162.5v-16zM676 1339v54q0 53 37 90t129 37t128 -37t36 -90v-54q0 -53 -36 -91t-128 -38t-129 38t-37 91z" />
<glyph unicode="&#x452;" d="M18 1188v225h115v103h303v-103h287v-225h-287v-324h13q18 45 44.5 84t64.5 69t88 47t114 17q76 0 139.5 -25.5t108.5 -76.5t70.5 -125t25.5 -170v-788q0 -133 -79 -219.5t-243 -86.5h-346v236h365v817q0 205 -178 205q-35 0 -69 -9.5t-60.5 -28.5t-42 -48t-15.5 -68v-694 h-303v1188h-115z" />
<glyph unicode="&#x453;" d="M250 0v1057h799v-236h-496v-821h-303zM502 1255l203 398l252 -125l-275 -361z" />
<glyph unicode="&#x454;" d="M123 528q0 129 37 231.5t105.5 174.5t167.5 109.5t222 37.5q174 0 279.5 -70.5t161.5 -187.5l-224 -118q-29 68 -78 109.5t-139 41.5q-111 0 -170 -60.5t-63 -166.5h332v-201h-332q4 -106 63.5 -166.5t171.5 -60.5q94 0 147.5 42t84.5 107l219 -125q-59 -113 -168 -181.5 t-283 -68.5q-125 0 -224 38t-167.5 110t-105.5 174t-37 231z" />
<glyph unicode="&#x455;" d="M100 174l170 158q61 -68 144.5 -106t189.5 -38q90 0 141.5 28t51.5 85q0 45 -35 62.5t-96 27.5l-170 27q-72 10 -133.5 31.5t-106.5 58.5t-71.5 90t-26.5 129q0 166 127 260t356 94q156 0 265.5 -42t174.5 -119l-151 -172q-47 51 -121 85.5t-178 34.5q-176 0 -176 -106 q0 -47 34.5 -64.5t96.5 -27.5l168 -27q72 -10 133 -31.5t107 -58.5t73 -90t27 -129q0 -166 -128 -262.5t-364 -96.5q-176 0 -306 53.5t-196 145.5z" />
<glyph unicode="&#x456;" d="M193 0v236h335v585h-335v236h638v-821h312v-236h-950zM498 1335v60q0 61 40 102t142 41t142 -41t40 -102v-60q0 -59 -40 -101t-142 -42t-142 42t-40 101z" />
<glyph unicode="&#x457;" d="M193 0v236h335v585h-335v236h638v-821h312v-236h-950zM291 1339v54q0 53 36 90t128 37t129 -37t37 -90v-54q0 -53 -37 -91t-129 -38t-128 38t-36 91zM740 1339v54q0 53 37 90t129 37t128 -37t36 -90v-54q0 -53 -36 -91t-128 -38t-129 38t-37 91z" />
<glyph unicode="&#x458;" d="M184 821v236h713v-1161q0 -133 -80 -219.5t-242 -86.5h-387v236h406v995h-410zM563 1335v60q0 61 40 102t142 41q100 0 141.5 -41t41.5 -102v-60q0 -59 -41.5 -101t-141.5 -42q-102 0 -142 42t-40 101z" />
<glyph unicode="&#x459;" d="M0 -12v233h98q20 29 34.5 67t24 97t13.5 146t4 217v309h610v-301h66q78 0 145.5 -24.5t117.5 -73t79 -118t29 -161.5t-29 -163t-80 -119t-119.5 -72.5t-150.5 -24.5h-301v836h-135v-97q0 -176 -9.5 -289.5t-26 -188.5t-43 -119t-59.5 -76q-37 -37 -94 -57.5t-137 -20.5 h-37zM784 201h72q55 0 87 36.5t32 114.5v51q0 78 -32 115t-87 37h-72v-354z" />
<glyph unicode="&#x45a;" d="M61 0v1057h244v-410h213v410h244v-301h88q78 0 145.5 -24.5t117.5 -73t79 -118t29 -161.5t-29 -163t-80 -119t-119.5 -72.5t-150.5 -24.5h-324v426h-213v-426h-244zM762 201h94q55 0 87 36.5t32 114.5v51q0 78 -32 115t-87 37h-94v-354z" />
<glyph unicode="&#x45b;" d="M18 1188v225h115v103h303v-103h287v-225h-287v-324h13q18 45 44.5 84t64.5 69t88 47t114 17q76 0 139.5 -25.5t108.5 -76.5t70.5 -125t25.5 -170v-684h-303v643q0 205 -178 205q-35 0 -69 -9.5t-60.5 -28.5t-42 -48t-15.5 -68v-694h-303v1188h-115z" />
<glyph unicode="&#x45c;" d="M145 0v1057h304v-406h155l213 406h322l-205 -365q-35 -66 -75 -95.5t-91 -39.5v-12q59 -12 97 -44t77 -108l80 -157h113v-236h-142q-86 0 -146.5 35t-103.5 119l-139 266h-155v-420h-304zM467 1255l203 398l252 -125l-275 -361z" />
<glyph unicode="&#x45d;" d="M139 0v1057h295v-340l-24 -311h12l383 651h285v-1057h-295v340l24 311h-12l-383 -651h-285zM311 1528l252 125l203 -398l-180 -88z" />
<glyph unicode="&#x45e;" d="M39 1057h326l153 -445l96 -307h17l92 307l158 445h309l-498 -1227q-47 -117 -125 -178.5t-213 -61.5h-209v236h254l66 180zM227 1513l236 89l65 -220q12 -6 39 -10t53 -4q27 0 53.5 4t39.5 10l65 220l236 -89l-43 -112q-43 -113 -129.5 -173.5t-221.5 -60.5t-221 60.5 t-129 173.5z" />
<glyph unicode="&#x45f;" d="M139 0v1057h303v-821h344v821h304v-1057h-338v-287h-275v287h-338z" />
<glyph unicode="&#x472;" d="M55 715q0 350 136.5 544.5t422.5 194.5q287 0 423.5 -194.5t136.5 -544.5t-136.5 -545t-423.5 -195t-423 195t-136 545zM358 584q0 -197 57.5 -291t198.5 -94t198.5 94t57.5 291v14h-512v-14zM358 850h512q-2 193 -59.5 287t-196.5 94q-141 0 -198.5 -94.5t-57.5 -286.5z " />
<glyph unicode="&#x473;" d="M84 528q0 129 37 231.5t105.5 174.5t167 109.5t220.5 37.5q123 0 221.5 -37.5t167 -109.5t105.5 -174.5t37 -231.5t-37 -231t-105.5 -174t-167 -110t-221.5 -38t-221 38t-166.5 110t-105.5 174t-37 231zM375 434q0 -129 61 -192.5t178 -63.5q115 0 176.5 63.5t63.5 192.5 h-479zM375 635h479q-4 123 -66.5 183.5t-173.5 60.5q-113 0 -174 -60.5t-65 -183.5z" />
<glyph unicode="&#x490;" d="M219 0v1430h572v307h290v-559h-553v-1178h-309z" />
<glyph unicode="&#x491;" d="M250 0v1057h524v286h275v-522h-496v-821h-303z" />
<glyph unicode="&#x492;" d="M78 578v233h174v619h862v-252h-553v-367h357v-233h-357v-578h-309v578h-174z" />
<glyph unicode="&#x493;" d="M115 383v215h180v459h799v-236h-496v-223h309v-215h-309v-383h-303v383h-180z" />
<glyph unicode="&#x494;" d="M125 0v1430h862v-252h-553v-412h10q47 18 109.5 31.5t136.5 13.5q121 0 209 -27.5t144.5 -88t83 -159t26.5 -239.5v-211q0 -127 -26.5 -218t-76 -148.5t-120 -84t-158.5 -26.5h-215v252h234q53 66 53 233v211q0 147 -47 202.5t-158 55.5q-61 0 -111.5 -9t-93.5 -26v-528 h-309z" />
<glyph unicode="&#x495;" d="M152 0v1057h798v-236h-495v-368h10q49 66 119.5 103.5t173.5 37.5q186 0 267 -97.5t81 -314.5v-180q0 -217 -81 -314.5t-267 -97.5h-201v236h205q18 23 29.5 62.5t11.5 131.5v144q0 104 -37 144t-129 40t-137 -30.5t-45 -86.5v-231h-303z" />
<glyph unicode="&#x496;" d="M-16 0l96 510q18 102 59 153.5t119 67.5v12q-66 18 -105.5 65.5t-58.5 143.5l-90 478h260l111 -590h82v590h266v-590h82l110 590h261l-91 -478q-18 -96 -58 -143t-105 -66v-12q78 -16 118.5 -67.5t59.5 -153.5l53 -279h125v-538h-225v307h-133l-115 608h-82v-608h-266 v608h-82l-115 -608h-276z" />
<glyph unicode="&#x497;" d="M0 0l86 348q20 82 56 126t110 63v14q-59 18 -94 57t-54 111l-88 338h250l107 -416h92v416h242v-416h92l108 416h248l-88 -338q-18 -72 -53 -111t-94 -57v-14q74 -18 109.5 -62.5t55.5 -126.5l31 -127h137v-508h-217v287h-127l-102 430h-100v-430h-242v430h-100l-105 -430 h-260z" />
<glyph unicode="&#x498;" d="M78 180l178 197q61 -72 144 -112t169 -40q109 0 162 48.5t53 127.5v23q0 86 -44 125t-142 39h-197v248h197q84 0 123 47t39 131v18q0 174 -195 174q-92 0 -159.5 -38t-126.5 -103l-175 180q92 98 207 153.5t277 55.5q240 0 369.5 -102.5t129.5 -300.5q0 -127 -80.5 -208 t-215.5 -104v-12q70 -4 128 -25.5t101 -59.5t67.5 -93t24.5 -129q0 -174 -105.5 -287t-291.5 -145v-295h-291v295q-115 23 -200 73t-146 119z" />
<glyph unicode="&#x499;" d="M104 172l175 162q61 -68 134.5 -100.5t186.5 -32.5q94 0 143.5 32.5t49.5 88.5v12q0 94 -115 94h-248v201h221q66 0 93.5 27.5t27.5 74.5v12q0 47 -46 80t-140 33q-92 0 -159 -29.5t-126 -91.5l-168 156q84 90 195.5 140t283.5 50q111 0 197 -21.5t146.5 -60t91 -91 t30.5 -113.5q0 -98 -60.5 -159t-158.5 -79v-10q104 -16 172 -82t68 -170q0 -123 -94.5 -206t-274.5 -105v-271h-274v273q-119 18 -208 66t-143 120z" />
<glyph unicode="&#x49a;" d="M109 0v1430h309v-582h180l229 582h306l-201 -510q-35 -86 -72 -125t-92 -52v-12q55 -12 90 -46t68 -116l123 -317h174v-559h-291v307q-59 23 -101.5 66t-76.5 129l-156 405h-180v-600h-309z" />
<glyph unicode="&#x49b;" d="M125 0v1057h303v-406h156l213 406h321l-205 -365q-35 -66 -74.5 -95.5t-90.5 -39.5v-12q59 -12 97 -44t77 -108l79 -157h173v-523h-275v287q-59 18 -101 54t-75 100l-139 266h-156v-420h-303z" />
<glyph unicode="&#x49c;" d="M57 0v1430h283v-586h84v291h217v-291h64l213 586h282l-184 -508q-29 -80 -69 -121t-99 -58v-12q59 -12 95 -50t63 -116l106 -313h115v-252h-125q-96 0 -158.5 42t-99.5 153l-139 409h-64v-289h-217v289h-84v-604h-283z" />
<glyph unicode="&#x49d;" d="M61 0v1057h273v-408h90v244h197v-244h73l201 408h291l-189 -365q-35 -66 -74.5 -94.5t-95.5 -40.5v-12q66 -10 103 -42t67 -102l78 -176h107v-225h-117q-86 0 -149.5 35t-102.5 123l-119 264h-73v-219h-197v219h-90v-422h-273z" />
<glyph unicode="&#x4a0;" d="M2 1178v252h547v-582h139l205 582h303l-186 -527q-47 -129 -154 -160v-12q55 -12 92 -50t66 -122l102 -307h111v-252h-146q-100 0 -162.5 48t-99.5 159l-131 393h-139v-600h-309v1178h-238z" />
<glyph unicode="&#x4a1;" d="M10 821v236h539v-406h123l196 406h322l-199 -371q-35 -61 -73.5 -89t-92.5 -40v-12q63 -12 101.5 -45t68.5 -99l78 -165h113v-236h-142q-86 0 -147 36t-106 130l-119 254h-123v-420h-303v821h-236z" />
<glyph unicode="&#x4a2;" d="M96 0v1430h310v-580h321v580h309v-1178h158v-559h-291v307h-176v598h-321v-598h-310z" />
<glyph unicode="&#x4a3;" d="M113 0v1057h303v-404h311v404h303v-821h164v-523h-274v287h-193v418h-311v-418h-303z" />
<glyph unicode="&#x4a4;" d="M57 0v1430h283v-586h258v586h602v-238h-319v-1192h-283v606h-258v-606h-283z" />
<glyph unicode="&#x4a5;" d="M61 0v1057h273v-408h235v408h617v-228h-344v-829h-273v422h-235v-422h-273z" />
<glyph unicode="&#x4aa;" d="M84 715q0 352 138 545.5t425 193.5q111 0 196 -29.5t146.5 -83t101 -129t62.5 -170.5l-287 -69q-12 51 -28.5 94t-42 73.5t-63.5 48t-91 17.5q-125 0 -177 -97t-52 -269v-250q0 -172 52 -269.5t177 -97.5q106 0 154.5 65.5t70.5 168.5l287 -70q-35 -154 -122 -257 t-238 -138v-299h-291v299q-215 47 -316.5 232.5t-101.5 490.5z" />
<glyph unicode="&#x4ab;" d="M123 528q0 129 37 231.5t105.5 174.5t167.5 109.5t222 37.5q174 0 279.5 -70.5t161.5 -187.5l-234 -127q-29 61 -75 102.5t-132 41.5q-104 0 -160.5 -60.5t-56.5 -165.5v-172q0 -104 56.5 -164.5t164.5 -60.5q88 0 138.5 41t85.5 107l229 -132q-45 -92 -123 -156.5 t-194 -86.5v-277h-275v277q-190 37 -293.5 177t-103.5 361z" />
<glyph unicode="&#x4ae;" d="M8 1430h342l152 -332l110 -281h17l110 281l152 332h330l-453 -924v-506h-307v506z" />
<glyph unicode="&#x4af;" d="M55 1057h320l137 -404l100 -344h17l100 344l137 404h308l-408 -1057v-410h-303v410z" />
<glyph unicode="&#x4b0;" d="M8 1430h342l152 -332l110 -281h17l110 281l152 332h330l-453 -924h266v-234h-266v-272h-307v272h-266v234h266z" />
<glyph unicode="&#x4b1;" d="M55 1057h320l137 -404l100 -344h17l100 344l137 404h308l-408 -1057h266v-215h-266v-195h-303v195h-266v215h266z" />
<glyph unicode="&#x4b2;" d="M6 0l402 739l-375 691h350l117 -228l104 -229h17l106 229l123 228h321l-374 -695l264 -483h174v-559h-291v307h-96l-148 285l-100 225h-18l-103 -225l-151 -285h-322z" />
<glyph unicode="&#x4b3;" d="M47 0l395 537l-368 520h346l112 -170l86 -137h17l88 137l115 170h317l-369 -504l228 -317h164v-523h-275v287h-69l-134 199l-92 141h-16l-90 -141l-135 -199h-320z" />
<glyph unicode="&#x4b6;" d="M51 981v449h309v-465q0 -147 44.5 -203.5t144.5 -56.5q90 0 178 34v691h309v-1178h158v-559h-291v307h-176v504h-10q-47 -23 -106.5 -34t-125.5 -11q-109 0 -189.5 27.5t-135 90t-82 162t-27.5 242.5z" />
<glyph unicode="&#x4b7;" d="M102 682v375h304v-361q0 -80 37.5 -115.5t115.5 -35.5q80 0 124 30.5t44 86.5v395h303v-821h164v-523h-274v287h-193v440h-10q-47 -61 -118 -101t-161 -40q-336 0 -336 383z" />
<glyph unicode="&#x4b8;" d="M55 973v457h310v-465q0 -111 30.5 -167.5t91.5 -76.5v311h218v-317q31 4 59.5 10t50.5 16v689h309v-1430h-309v504h-10q-43 -16 -100 -29v-262h-218v246q-109 6 -189.5 36.5t-134.5 92t-81 157t-27 228.5z" />
<glyph unicode="&#x4b9;" d="M100 682v375h303v-383q0 -92 91 -119v283h196v-283q43 12 66.5 37.5t23.5 69.5v395h303v-1057h-303v420h-10q-16 -23 -36.5 -44.5t-43.5 -37.5v-191h-196v152q-113 0 -188 23.5t-121 70.5t-65.5 120t-19.5 169z" />
<glyph unicode="&#x4ba;" d="M125 0v1430h309v-504h10q47 18 109.5 31.5t136.5 13.5q121 0 209 -28t144.5 -88t83 -158.5t26.5 -239.5v-457h-309v465q0 147 -47 202.5t-158 55.5q-61 0 -111.5 -9t-93.5 -26v-688h-309z" />
<glyph unicode="&#x4bb;" d="M133 0v1516h303v-652h13q18 45 44.5 84t64.5 69t88 47t114 17q76 0 139.5 -25.5t108.5 -76.5t70.5 -125t25.5 -170v-684h-303v643q0 205 -178 205q-35 0 -69 -9.5t-60.5 -28.5t-42 -48t-15.5 -68v-694h-303z" />
<glyph unicode="&#x4c0;" d="M154 0v227h307v975h-307v228h921v-228h-307v-975h307v-227h-921z" />
<glyph unicode="&#x4c1;" d="M4 0l96 510q18 102 59.5 153.5t119.5 67.5v12q-66 18 -106 65.5t-58 143.5l-90 478h260l110 -590h86v590h267v-590h86l110 590h260l-90 -478q-18 -96 -58 -143t-106 -66v-12q78 -16 119 -67.5t59 -153.5l97 -510h-277l-114 608h-86v-608h-267v608h-86l-114 -608h-277z M221 1862l236 88l65 -219q12 -6 39 -10.5t53 -4.5q27 0 53.5 4t39.5 11l65 219l236 -88l-43 -113q-43 -113 -129.5 -173t-221.5 -60t-221 60t-129 173z" />
<glyph unicode="&#x4c2;" d="M29 0l86 348q20 82 56 126t110 63v14q-59 18 -94 57t-54 111l-88 338h250l106 -416h93v416h241v-416h92l109 416h248l-88 -338q-18 -72 -53 -111t-95 -57v-14q74 -18 110 -62.5t56 -126.5l86 -348h-262l-102 430h-101v-430h-241v430h-101l-104 -430h-260zM221 1513 l236 89l65 -220q12 -6 39 -10t53 -4q27 0 53.5 4t39.5 10l65 220l236 -89l-43 -112q-43 -113 -129.5 -173.5t-221.5 -60.5t-221 60.5t-129 173.5z" />
<glyph unicode="&#x4cf;" d="M139 0v236h324v1044h-324v236h951v-236h-324v-1044h324v-236h-951z" />
<glyph unicode="&#x4d0;" d="M10 0l387 1430h434l388 -1430h-328l-90 344h-391l-88 -344h-312zM221 1862l236 88l65 -219q12 -6 39 -10.5t53 -4.5q27 0 53.5 4t39.5 11l65 219l236 -88l-43 -113q-43 -113 -129.5 -173t-221.5 -60t-221 60t-129 173zM459 592h295l-140 541h-16z" />
<glyph unicode="&#x4d1;" d="M106 291q0 166 121 245.5t355 79.5h170v54q0 94 -44 142t-149 48q-96 0 -155.5 -37t-102.5 -96l-166 147q53 90 167 148.5t292 58.5q217 0 339 -99t122 -300v-463h116v-219h-174q-94 0 -151.5 48t-67.5 138h-10q-29 -104 -114 -157.5t-208 -53.5q-154 0 -247 83t-93 233z M207 1513l236 89l65 -220q12 -6 39 -10t53 -4q27 0 53.5 4t39.5 10l65 220l236 -89l-43 -112q-43 -113 -129.5 -173.5t-221.5 -60.5t-221 60.5t-129 173.5zM403 287q0 -55 43 -84t115 -29q80 0 135.5 39t55.5 113v127h-162q-186 0 -187 -125v-41z" />
<glyph unicode="&#x4d2;" d="M10 0l387 1430h434l388 -1430h-328l-90 344h-391l-88 -344h-312zM225 1688v53q0 53 36 90t128 37t129 -37t37 -90v-53q0 -53 -37 -91t-129 -38t-128 37.5t-36 91.5zM459 592h295l-140 541h-16zM674 1688v53q0 53 37 90t129 37t128 -37t36 -90v-53q0 -53 -36 -91t-128 -38 t-129 37.5t-37 91.5z" />
<glyph unicode="&#x4d3;" d="M106 291q0 166 121 245.5t355 79.5h170v54q0 94 -44 142t-149 48q-96 0 -155.5 -37t-102.5 -96l-166 147q53 90 167 148.5t292 58.5q217 0 339 -99t122 -300v-463h116v-219h-174q-94 0 -151.5 48t-67.5 138h-10q-29 -104 -114 -157.5t-208 -53.5q-154 0 -247 83t-93 233z M211 1339v54q0 53 36 90t128 37t129 -37t37 -90v-54q0 -53 -37 -91t-129 -38t-128 38t-36 91zM403 287q0 -55 43 -84t115 -29q80 0 135.5 39t55.5 113v127h-162q-186 0 -187 -125v-41zM660 1339v54q0 53 37 90t129 37t128 -37t36 -90v-54q0 -53 -36 -91t-128 -38t-129 38 t-37 91z" />
<glyph unicode="&#x4d4;" d="M-8 0l325 1430h854v-228h-317v-364h297v-228h-297v-383h317v-227h-600v344h-213l-67 -344h-299zM403 571h168v646h-45z" />
<glyph unicode="&#x4d5;" d="M8 289q0 166 96.5 251t276.5 85h82v88q0 180 -121 180q-53 0 -81 -37t-46 -102l-188 67q35 133 116.5 196.5t200.5 63.5q94 0 157.5 -38.5t98.5 -110.5h8q86 150 244 149q78 0 141.5 -34.5t108.5 -98t69.5 -153.5t24.5 -203v-125h-489v-31q0 -119 37.5 -191.5 t109.5 -72.5q57 0 86 44t45 103l199 -55q-16 -59 -42 -112.5t-66 -92.5t-94 -61.5t-124 -22.5q-109 0 -197 56.5t-124 183.5h-9q-18 -125 -83.5 -182.5t-163.5 -57.5q-57 0 -107.5 19.5t-87.5 58.5t-57.5 98.5t-20.5 137.5zM246 283q0 -57 24.5 -90t75.5 -33q66 0 91.5 53 t25.5 154v100h-60q-76 0 -116.5 -37t-40.5 -108v-39zM707 625h266v65q0 86 -32.5 146.5t-100.5 60.5t-100.5 -60.5t-32.5 -146.5v-65z" />
<glyph unicode="&#x4d6;" d="M164 0v1430h913v-252h-606v-328h586v-252h-586v-346h606v-252h-913zM227 1862l236 88l65 -219q12 -6 39 -10.5t53 -4.5q27 0 53.5 4t39.5 11l65 219l236 -88l-43 -113q-43 -113 -129.5 -173t-221.5 -60t-221 60t-129 173z" />
<glyph unicode="&#x4d7;" d="M102 524q0 129 36 232.5t102.5 176.5t162 110.5t213.5 37.5q119 0 213.5 -37.5t160 -107.5t101 -169t35.5 -222v-90h-723v-19q0 -102 63.5 -164.5t186.5 -62.5q94 0 162 36t117 95l164 -178q-61 -76 -172 -131.5t-281 -55.5q-266 0 -403.5 147.5t-137.5 401.5zM223 1513 l236 89l65 -220q12 -6 39 -10t53 -4q27 0 53.5 4t39.5 10l65 220l236 -89l-43 -112q-43 -113 -129.5 -173.5t-221.5 -60.5t-221 60.5t-129 173.5zM403 625h426v16q0 104 -56.5 163.5t-154.5 59.5t-156.5 -60.5t-58.5 -162.5v-16z" />
<glyph unicode="&#x4d8;" d="M55 715v102h805v23q0 82 -13 149.5t-42 116.5t-77 75.5t-118 26.5q-117 0 -173 -71.5t-83 -184.5l-266 101q49 193 179 297t343 104q291 0 427.5 -194.5t136.5 -544.5t-136.5 -545t-423.5 -195t-423 195t-136 545zM369 590q0 -174 53 -273.5t192 -99.5t192.5 99.5 t53.5 273.5v6h-491v-6z" />
<glyph unicode="&#x4d9;" d="M102 512v90h723v19q0 102 -63.5 164.5t-186.5 62.5q-94 0 -161.5 -36t-116.5 -95l-164 178q61 76 172 131t281 55q266 0 403 -147.5t137 -401.5q0 -129 -35.5 -232t-102 -176t-162 -111t-214.5 -38t-213 38t-160.5 107.5t-101.5 169t-35 222.5zM399 416 q0 -104 56.5 -163.5t154.5 -59.5t156.5 60t58.5 163v16h-426v-16z" />
<glyph unicode="&#x4dc;" d="M4 0l96 510q18 102 59.5 153.5t119.5 67.5v12q-66 18 -106 65.5t-58 143.5l-90 478h260l110 -590h86v590h267v-590h86l110 590h260l-90 -478q-18 -96 -58 -143t-106 -66v-12q78 -16 119 -67.5t59 -153.5l97 -510h-277l-114 608h-86v-608h-267v608h-86l-114 -608h-277z M225 1688v53q0 53 36 90t128 37t129 -37t37 -90v-53q0 -53 -37 -91t-129 -38t-128 37.5t-36 91.5zM674 1688v53q0 53 37 90t129 37t128 -37t36 -90v-53q0 -53 -36 -91t-128 -38t-129 37.5t-37 91.5z" />
<glyph unicode="&#x4dd;" d="M29 0l86 348q20 82 56 126t110 63v14q-59 18 -94 57t-54 111l-88 338h250l106 -416h93v416h241v-416h92l109 416h248l-88 -338q-18 -72 -53 -111t-95 -57v-14q74 -18 110 -62.5t56 -126.5l86 -348h-262l-102 430h-101v-430h-241v430h-101l-104 -430h-260zM225 1339v54 q0 53 36 90t128 37t129 -37t37 -90v-54q0 -53 -37 -91t-129 -38t-128 38t-36 91zM674 1339v54q0 53 37 90t129 37t128 -37t36 -90v-54q0 -53 -36 -91t-128 -38t-129 38t-37 91z" />
<glyph unicode="&#x4de;" d="M78 180l178 197q61 -72 144 -112t169 -40q109 0 162 48.5t53 127.5v23q0 86 -44 125t-142 39h-197v248h197q84 0 123 47t39 131v18q0 174 -195 174q-92 0 -159.5 -38t-126.5 -103l-175 180q92 98 207 153.5t277 55.5q240 0 369.5 -102.5t129.5 -300.5q0 -127 -80.5 -208 t-215.5 -104v-12q70 -4 128 -25.5t101 -59.5t67.5 -93t24.5 -129q0 -102 -39 -184t-109.5 -139.5t-171 -89.5t-223.5 -32q-172 0 -291.5 57.5t-199.5 147.5zM200 1688v53q0 53 36 90t128 37t129 -37t37 -90v-53q0 -53 -37 -91t-129 -38t-128 37.5t-36 91.5zM649 1688v53 q0 53 37 90t129 37t128 -37t36 -90v-53q0 -53 -36 -91t-128 -38t-129 37.5t-37 91.5z" />
<glyph unicode="&#x4df;" d="M104 172l175 162q61 -68 134.5 -100.5t186.5 -32.5q94 0 143.5 32.5t49.5 88.5v12q0 94 -115 94h-248v201h221q66 0 93.5 27.5t27.5 74.5v12q0 47 -46 80t-140 33q-92 0 -159 -29.5t-126 -91.5l-168 156q84 90 195.5 140t283.5 50q111 0 197 -21.5t146.5 -60t91 -91 t30.5 -113.5q0 -98 -60.5 -159t-158.5 -79v-10q104 -16 172 -82t68 -170q0 -143 -129 -231.5t-377 -88.5q-166 0 -293 53.5t-195 143.5zM225 1339v54q0 53 36 90t128 37t129 -37t37 -90v-54q0 -53 -37 -91t-129 -38t-128 38t-36 91zM674 1339v54q0 53 37 90t129 37t128 -37 t36 -90v-54q0 -53 -36 -91t-128 -38t-129 38t-37 91z" />
<glyph unicode="&#x4e2;" d="M113 0v1430h288v-531l-24 -383h20l430 914h289v-1430h-289v530l25 383h-21l-430 -913h-288zM301 1608v211h627v-211h-627z" />
<glyph unicode="&#x4e3;" d="M139 0v1057h295v-340l-24 -311h12l383 651h285v-1057h-295v340l24 311h-12l-383 -651h-285zM305 1260v210h627v-210h-627z" />
<glyph unicode="&#x4e4;" d="M113 0v1430h288v-531l-24 -383h20l430 914h289v-1430h-289v530l25 383h-21l-430 -913h-288zM225 1688v53q0 53 36 90t128 37t129 -37t37 -90v-53q0 -53 -37 -91t-129 -38t-128 37.5t-36 91.5zM674 1688v53q0 53 37 90t129 37t128 -37t36 -90v-53q0 -53 -36 -91t-128 -38 t-129 37.5t-37 91.5z" />
<glyph unicode="&#x4e5;" d="M139 0v1057h295v-340l-24 -311h12l383 651h285v-1057h-295v340l24 311h-12l-383 -651h-285zM229 1339v54q0 53 36 90t128 37t129 -37t37 -90v-54q0 -53 -37 -91t-129 -38t-128 38t-36 91zM678 1339v54q0 53 37 90t129 37t128 -37t36 -90v-54q0 -53 -36 -91t-128 -38 t-129 38t-37 91z" />
<glyph unicode="&#x4e6;" d="M55 715q0 350 136.5 544.5t422.5 194.5q287 0 423.5 -194.5t136.5 -544.5t-136.5 -545t-423.5 -195t-423 195t-136 545zM225 1688v53q0 53 36 90t128 37t129 -37t37 -90v-53q0 -53 -37 -91t-129 -38t-128 37.5t-36 91.5zM383 590q0 -172 50 -269.5t181 -97.5t181.5 97.5 t50.5 271.5v248q0 172 -50.5 269t-181.5 97t-181 -97t-50 -269v-250zM674 1688v53q0 53 37 90t129 37t128 -37t36 -90v-53q0 -53 -36 -91t-128 -38t-129 37.5t-37 91.5z" />
<glyph unicode="&#x4e7;" d="M84 528q0 129 37 231.5t105.5 174.5t167 109.5t220.5 37.5q123 0 221.5 -37.5t167 -109.5t105.5 -174.5t37 -231.5t-37 -231t-105.5 -174t-167 -110t-221.5 -38t-221 38t-166.5 110t-105.5 174t-37 231zM225 1339v54q0 53 36 90t128 37t129 -37t37 -90v-54q0 -53 -37 -91 t-129 -38t-128 38t-36 91zM397 444q0 -117 57.5 -180t159.5 -63t159.5 63.5t57.5 179.5v168q0 117 -57 180.5t-160 63.5q-102 0 -159.5 -63.5t-57.5 -180.5v-168zM674 1339v54q0 53 37 90t129 37t128 -37t36 -90v-54q0 -53 -36 -91t-128 -38t-129 38t-37 91z" />
<glyph unicode="&#x4e8;" d="M55 715q0 350 136.5 544.5t422.5 194.5q287 0 423.5 -194.5t136.5 -544.5t-136.5 -545t-423.5 -195t-423 195t-136 545zM358 584q0 -197 57.5 -291t198.5 -94t198.5 94t57.5 291v14h-512v-14zM358 850h512q-2 193 -59.5 287t-196.5 94q-141 0 -198.5 -94.5t-57.5 -286.5z " />
<glyph unicode="&#x4e9;" d="M84 528q0 129 37 231.5t105.5 174.5t167 109.5t220.5 37.5q123 0 221.5 -37.5t167 -109.5t105.5 -174.5t37 -231.5t-37 -231t-105.5 -174t-167 -110t-221.5 -38t-221 38t-166.5 110t-105.5 174t-37 231zM375 434q0 -129 61 -192.5t178 -63.5q115 0 176.5 63.5t63.5 192.5 h-479zM375 635h479q-4 123 -66.5 183.5t-173.5 60.5q-113 0 -174 -60.5t-65 -183.5z" />
<glyph unicode="&#x4ee;" d="M33 1430h325l209 -508l76 -246h6l66 246l180 508h311l-446 -1178q-27 -72 -58.5 -120t-70.5 -77.5t-89 -42t-114 -12.5h-205v252h242l39 98zM317 1608v211h627v-211h-627z" />
<glyph unicode="&#x4ef;" d="M39 1057h326l153 -445l96 -307h17l92 307l158 445h309l-498 -1227q-47 -117 -125 -178.5t-213 -61.5h-209v236h254l66 180zM307 1260v210h627v-210h-627z" />
<glyph unicode="&#x4f0;" d="M33 1430h325l209 -508l76 -246h6l66 246l180 508h311l-446 -1178q-27 -72 -58.5 -120t-70.5 -77.5t-89 -42t-114 -12.5h-205v252h242l39 98zM241 1688v53q0 53 36 90t128 37t129 -37t37 -90v-53q0 -53 -37 -91t-129 -38t-128 37.5t-36 91.5zM690 1688v53q0 53 37 90 t129 37t128 -37t36 -90v-53q0 -53 -36 -91t-128 -38t-129 37.5t-37 91.5z" />
<glyph unicode="&#x4f1;" d="M39 1057h326l153 -445l96 -307h17l92 307l158 445h309l-498 -1227q-47 -117 -125 -178.5t-213 -61.5h-209v236h254l66 180zM231 1339v54q0 53 36 90t128 37t129 -37t37 -90v-54q0 -53 -37 -91t-129 -38t-128 38t-36 91zM680 1339v54q0 53 37 90t129 37t128 -37t36 -90 v-54q0 -53 -36 -91t-128 -38t-129 38t-37 91z" />
<glyph unicode="&#x4f2;" d="M33 1430h325l209 -508l76 -246h6l66 246l180 508h311l-446 -1178q-27 -72 -58.5 -120t-70.5 -77.5t-89 -42t-114 -12.5h-205v252h242l39 98zM280 1595l203 398l238 -117l-275 -360zM700 1595l203 398l237 -117l-274 -360z" />
<glyph unicode="&#x4f3;" d="M39 1057h326l153 -445l96 -307h17l92 307l158 445h309l-498 -1227q-47 -117 -125 -178.5t-213 -61.5h-209v236h254l66 180zM270 1247l203 398l238 -117l-275 -361zM690 1247l203 398l237 -117l-274 -361z" />
<glyph unicode="&#x4f4;" d="M76 973v457h309v-465q0 -147 47 -202.5t158 -55.5q61 0 111.5 9t93.5 25v689h309v-1430h-309v504h-11q-47 -18 -109.5 -31.5t-135.5 -13.5q-121 0 -209 27.5t-144.5 88t-83 158.5t-26.5 240zM202 1688v53q0 53 36 90t128 37t129 -37t37 -90v-53q0 -53 -37 -91t-129 -38 t-128 37.5t-36 91.5zM651 1688v53q0 53 37 90t129 37t128 -37t36 -90v-53q0 -53 -36 -91t-128 -38t-129 37.5t-37 91.5z" />
<glyph unicode="&#x4f5;" d="M115 682v375h303v-361q0 -80 38 -115.5t128 -35.5q92 0 137 30.5t45 86.5v395h303v-1057h-303v440h-10q-49 -66 -120 -103.5t-173 -37.5q-182 0 -265 94t-83 289zM205 1339v54q0 53 36 90t128 37t129 -37t37 -90v-54q0 -53 -37 -91t-129 -38t-128 38t-36 91zM654 1339v54 q0 53 37 90t129 37t128 -37t36 -90v-54q0 -53 -36 -91t-128 -38t-129 38t-37 91z" />
<glyph unicode="&#x4f8;" d="M57 0v1430h262v-517h91q92 0 165.5 -31.5t126 -92t80 -144.5t27.5 -188t-27.5 -189.5t-80 -145t-126 -91t-165.5 -31.5h-353zM225 1688v53q0 53 36 90t128 37t129 -37t37 -90v-53q0 -53 -37 -91t-129 -38t-128 37.5t-36 91.5zM319 231h46q174 0 174 152v147 q0 152 -174 152h-46v-451zM674 1688v53q0 53 37 90t129 37t128 -37t36 -90v-53q0 -53 -36 -91t-128 -38t-129 37.5t-37 91.5zM909 0v1430h262v-1430h-262z" />
<glyph unicode="&#x4f9;" d="M61 0v1057h254v-301h119q78 0 145.5 -24.5t118 -73t79 -118t28.5 -161.5t-28.5 -163t-80 -119t-120 -72.5t-150.5 -24.5h-365zM225 1339v54q0 53 36 90t128 37t129 -37t37 -90v-54q0 -53 -37 -91t-129 -38t-128 38t-36 91zM315 207h109q59 0 92 34.5t33 110.5v51 q0 76 -33 111t-92 35h-109v-342zM674 1339v54q0 53 37 90t129 37t128 -37t36 -90v-54q0 -53 -36 -91t-128 -38t-129 38t-37 91zM911 0v1057h254v-1057h-254z" />
<glyph unicode="&#x2000;" horiz-adv-x="1000" />
<glyph unicode="&#x2001;" horiz-adv-x="2001" />
<glyph unicode="&#x2002;" horiz-adv-x="1000" />
<glyph unicode="&#x2003;" horiz-adv-x="2001" />
<glyph unicode="&#x2004;" horiz-adv-x="667" />
<glyph unicode="&#x2005;" horiz-adv-x="500" />
<glyph unicode="&#x2006;" horiz-adv-x="333" />
<glyph unicode="&#x2007;" horiz-adv-x="333" />
<glyph unicode="&#x2008;" horiz-adv-x="250" />
<glyph unicode="&#x2009;" horiz-adv-x="400" />
<glyph unicode="&#x200a;" horiz-adv-x="111" />
<glyph unicode="&#x2010;" d="M287 479v291h655v-291h-655z" />
<glyph unicode="&#x2011;" d="M287 479v291h655v-291h-655z" />
<glyph unicode="&#x2012;" d="M287 479v291h655v-291h-655z" />
<glyph unicode="&#x2013;" d="M123 500v248h983v-248h-983z" />
<glyph unicode="&#x2014;" d="M0 500v248h1229v-248h-1229z" />
<glyph unicode="&#x2018;" d="M332 848l282 668h224l-117 -668h-389z" />
<glyph unicode="&#x2019;" d="M391 848l117 668h389l-283 -668h-223z" />
<glyph unicode="&#x201a;" d="M348 -309l117 665h389l-281 -665h-225z" />
<glyph unicode="&#x201c;" d="M70 848l282 668h224l-117 -668h-389zM598 848l282 668h224l-117 -668h-389z" />
<glyph unicode="&#x201d;" d="M129 848l117 668h389l-283 -668h-223zM657 848l117 668h389l-283 -668h-223z" />
<glyph unicode="&#x201e;" d="M92 -309l117 665h389l-281 -665h-225zM620 -309l117 665h389l-281 -665h-225z" />
<glyph unicode="&#x2022;" d="M299 588v69q0 57 16.5 106.5t54.5 85.5t98 56.5t146 20.5t146.5 -20.5t98.5 -56.5t54.5 -85t16.5 -107v-69q0 -57 -16.5 -106.5t-54.5 -85.5t-98.5 -56.5t-146.5 -20.5t-146 20.5t-98 56.5t-54.5 85t-16.5 107z" />
<glyph unicode="&#x2026;" d="M59 96v94q0 45 36 78t114 33q74 0 110.5 -32.5t36.5 -78.5v-94q0 -45 -36.5 -77.5t-110.5 -32.5q-78 0 -114 32.5t-36 77.5zM465 96v94q0 45 37 78t112 33q76 0 113 -32.5t37 -78.5v-94q0 -45 -37 -77.5t-113 -32.5t-112.5 32.5t-36.5 77.5zM872 96v94q0 45 37 78t111 33 q76 0 112.5 -32.5t36.5 -78.5v-94q0 -45 -36.5 -77.5t-112.5 -32.5q-74 0 -111 32.5t-37 77.5z" />
<glyph unicode="&#x202f;" horiz-adv-x="400" />
<glyph unicode="&#x2039;" d="M354 422v270l410 344l92 -196l-266 -283l266 -285l-92 -194z" />
<glyph unicode="&#x203a;" d="M373 272l266 285l-266 283l92 196l409 -344v-270l-409 -344z" />
<glyph unicode="&#x205f;" horiz-adv-x="500" />
<glyph unicode="&#x20ac;" d="M92 715q0 174 40 312t117 232.5t187.5 144.5t251.5 50q104 0 180 -21.5t133.5 -56.5t97.5 -79t75 -91l-224 -155q-45 80 -104.5 119.5t-145.5 39.5q-115 0 -183 -62.5t-93 -174.5h455v-185h-467v-147h467v-184h-455q25 -113 93.5 -175.5t182.5 -62.5q86 0 145.5 40 t104.5 120l224 -156q-35 -47 -75 -91t-97.5 -79t-133.5 -56.5t-180 -21.5q-141 0 -251.5 50.5t-187.5 144.5t-117 231.5t-40 313.5z" />
<glyph unicode="&#x2122;" d="M27 1305v125h458v-125h-141v-467h-176v467h-141zM528 838v592h187l114 -220h13l114 220h174v-592h-147v198l16 191h-8l-162 -299l-161 299h-9l17 -191v-198h-148z" />
<glyph unicode="&#x25fc;" horiz-adv-x="1054" d="M0 0v1055h1055v-1055h-1055z" />
</font>
</defs>
</svg>
